<mxfile host="app.diagrams.net" modified="2021-07-07T10:20:53.252Z" agent="5.0 (Macintosh; Intel Mac OS X 10_13_6) AppleWebKit/537.36 (KHTML, like Gecko) Chrome/91.0.4472.114 Safari/537.36" etag="fUiDK-2_P3VYKfQXB4NT" version="14.8.4" type="github">
  <diagram id="3QpSMYWQhY0W9ubYM_2R" name="Page-1">
    <mxGraphModel dx="946" dy="614" grid="1" gridSize="10" guides="1" tooltips="1" connect="1" arrows="1" fold="1" page="1" pageScale="1" pageWidth="827" pageHeight="1169" math="0" shadow="0">
      <root>
        <mxCell id="0" />
        <mxCell id="1" parent="0" />
        <mxCell id="VLUwUuS1DwrVdbaBEEm2-1" value="" style="shape=image;verticalLabelPosition=bottom;labelBackgroundColor=#ffffff;verticalAlign=top;aspect=fixed;imageAspect=0;image=data:image/png,iVBORw0KGgoAAAANSUhEUgAAA/wAAAJvCAYAAADGJNqiAAAgAElEQVR4Aeyd+681RZmoz980nB/H3zCamTgJxiOJR+NhzEBGo0ENMBgvwTEaCTqABgRUQJ3xBoOjXDQKXoAoXpCooIIO4CBe+fAuXvvkaa391e5vda/utaqruno9lfTu3d3VdXneqnrrrUuv/9XoJCABCUhAAhKQgAQkIAEJSEACElgdgf+1uhyZIQlIQAISkIAEJCABCUhAAhKQgAQaDX4LgQQkIAEJSEACEpCABCQgAQlIYIUENPhXKFSzJAEJSEACEpCABCQgAQlIQAIS0OC3DEhAAhKQgAQkIAEJSEACEpCABFZIQIN/hUI1SxKQgAQkIAEJSEACEpCABCQgAQ1+y4AEJCABCUhAAhKQgAQkIAEJSGCFBDT4VyhUsyQBCUhAAhKQgAQkIAEJSEACEtDgtwxIQAISkIAEJCABCUhAAhKQgARWSECDf4VCNUsSkIAEJCABCUhAAhKQgAQkIAENfsuABCQgAQlIQAISkIAEJCABCUhghQQ0+FcoVLMkAQlIQAISkIAEJCABCUhAAhLQ4LcMSEACEpCABCQgAQlIQAISkIAEVkhAg3+FQjVLEpCABCQgAQlIQAISkIAEJCABDX7LgAQkIIEDJ/A3f/M3DUfsvNe0TOSy3rIRl3f/l4AElkFA3aPuoSQeWjmYu/Zp8M9N2PAlIAEJLJzAoSlW83t4nalNMl94tTR5EjhIApvqqvdss6kMay4Hc1d2Df65CRu+BCQgAQlIQAKLIbCp07iYxJkQCUhAAhI4GAK59JEG/8EUKTMqAQlI4FQCuZTNqTF7RwJlCFjmy3A3VglsI2Dd3EbI52sjkKvMz2Lwb0q899a9FEX5rq0JMj+HQmBT3T2UvJtPCUhAAhJYDgH10XJkYUrWRUCD/6/y3NTIeM9BCorH2HKwrqbB3EhAAhKQgAQkIAEJSEACtROYxeCvHYrpl8AUApsGBKa8r18JSEACEpCABCQgAQlIQAJzEEhu8Gv8zCEmw1wyAcv8kqVj2iQgAQkcJ2CbfZyHVxKQgAQkUIZALn2kwV9GvsYqAQlIYBEEcimbRWTWREigZ5uWYCQggfIE1EflZWAK8hLIVeaTG/x5MRmbBCQgAQnsQyCXstknjb4rAQlIQALrJ6A+Wr+MzWEZAhr8ZbgbqwQkIAEJSEACEpCABCQgAQlIYFYCGvyz4jXwQyDgiPQhSNk8SkACEpCABCQgAQlIoD4CyQ1+jZ/6CoEp3o+AZX4/fr4tAQlIICcB2+yctI1LAhKQgAT6COTSRxr8fRLwvgQkIIEDIJBL2RwASrNYCQHLfCWCMpkHR8C6eXAiP/gM5yrzyQ3+g5ecACQgAQlURCCXsqkIiUmVgAQkIIECBNRHBaAb5UEQ0OA/CDGbSQlIQAISkIAEJCABCUhAAhI4NAIa/IcmcfObnIAj0smRGqAEJCABCUhAAhKQgAQkkIBAcoNf4yeBVAyiKgKW+arEZWIlIIEDJ2CbfeAFwOxLQAISWAiBXPpIg38hAjcZEpCABEoQyKVsSuTNOCWwiYBlfhMV70mgPAHrZnkZmIK8BHKV+eQGf15MxiYBCUhAAvsQyKVs9kmj70pAAhKQwPoJqI/WL2NzWIaABn8Z7sYqAQlIQAISkIAEJCABCUhAAhKYlYAG/6x4DfwQCDgifQhSNo8SkIAEJCABCUhAAhKoj0Byg1/jp75CYIr3I2CZ34+fb0tAAhLIScA2Oydt45KABCQggT4CufSRBn+fBLwvAQlI4AAI5FI2B4DSLFZCwDJfiaBM5sERsG4enMgPPsO5ynxyg//gJScACUhAAhURyKVsKkJiUiUgAQlIoAAB9VEB6EZ5EAQ0+A9CzGZSAhKQgAQkIAEJSEACEpCABA6NgAb/oUnc/CYn4Ih0cqQGKAEJSEACEpCABCQgAQkkIJDc4Nf4SSAVg6iKgGW+KnGZWAlI4MAJ2GYfeAEw+xKQgAQWQiCXPtLgX4jATYYEJCCBEgRyKZsSeTNOCWwiYJnfRMV7EihPwLpZXgamIC+BXGU+ucGfF5OxSUACEpDAPgRyKZt90ui7EpCABCSwfgLqo/XL2ByWIaDBX4a7sUpAAhKQgAQkIAEJSEACEpCABGYloME/K14DPwQCjkgfgpTNowQkIAEJSEACEpCABOojkNzg1/iprxCY4v0IWOb34+fbEpCABHISsM3OSdu4JCABCUigj0AufaTB3ycB70tAAhI4AAK5lM0BoDSLlRCwzFciKJN5cASsmwcn8oPPcK4yn9zgP3jJCUACEpBARQRyKZuKkJhUCUhAAhIoQEB9VAC6UR4EAQ3+gxCzmZSABCQgAQlIQAISkIAEJCCBQyOgwX9oEje/yQk4Ip0cqQFKQAISkIAEJCABCUhAAgkIJDf4NX4SSMUgqiJgma9KXCZWAhI4cAK22QdeAMy+BCQggYUQyKWPNPgXInCTIQEJSKAEgVzKpkTejFMCmwhY5jdR8Z4EyhOwbpaXgSnISyBXmU9u8OfFZGwSkIAEJLAPgVzKZp80+q4EJCABCayfgPpo/TI2h2UIaPCX4W6sEpCABCQgAQlIQAISkIAEJCCBWQlo8M+K18APgYAj0ocgZfMoAQlIQAISkIAEJCCB+ggkN/g1fuorBKZ4PwKW+f34+bYEJCCBnARss3PSNi4JSEACEugjkEsfafD3ScD7EpCABA6AQC5lcwAozWIlBCzzlQjKZB4cAevmwYn84DOcq8wnN/gPXnICkIAEJFARgVzKpiIkJlUCEpCABAoQUB8VgG6UB0FAg/8gxGwmJSABCUhAAhKQgAQkIAEJSODQCGjwH5rEzW9yAo5IJ0dqgBKQgAQkIAEJSEACEpBAAgLJDX6NnwRSMYiqCFjmqxKXiZWABA6cgG32gRcAsy8BCUhgIQRy6SMN/oUI3GRIQAISKEEgl7IpkTfjlMAmApb5TVS8J4HyBKyb5WVgCvISyFXmkxv8eTEZmwQkIAEJ7EMgl7LZJ42+KwEJSEAC6yegPlq/jM1hGQIa/GW4G6sEJCABCUhAAhKQgAQkIAEJSGBWAhr8s+I18EMg4Ij0IUjZPEpAAhKQgAQkIAEJSKA+AskNfo2f+gqBKd6PgGV+P36+LQEJSCAnAdvsnLSNSwISkIAE+gjk0kca/H0S8L4EJCCBAyCQS9kcAEqzWAkBy3wlgjKZB0fAunlwIj/4DOcq88kN/oOXnAAkIAEJVEQgl7KpCIlJlYAEJCCBAgTURwWgG+VBENDgPwgxm0kJSEACEpCABCQgAQlIQAISODQCB2/w/9u//Vvz4he/uHn605/e/O///b89MjB4xjOe0Zx77rnNZZddtor65oj0KsRoJlZAwPY8vw5bW3u+gmpgFiQggQIE1D/qnwLFbnSUyQ3+moyf888/vwnp9fw3RVhccMEFowvrUj2GsrPU9JkuCRwCAdvzMm14aP8419KehzQfQr0wjxKQwPwE1D/qn11LWS59dLAGP7PLQH7Oc57T3Hvvvc0TTzzR/PnPf/bIwODEiRPNV7/61ZY9MmBUVCcBCZQhkEvZzJk72/NyuqvG9nwNZX7O+mTYEihFoMa6qf5R/+xTX3KV+eQG/z6ZzvkuS8qBfN999+WM1rgiAgy0IAO2VOgkIIEyBHIpmzlzZ3s+J91xYduej+OkLwlIoJ9AjfpI/dMvz1xP1D/bSR+swc++QxqWJ598cjslfcxCgFUVyOD000+fJXwDlYAEDoOA7Xl5Oduel5eBKZCABPITUP/kZ96NUf3TJXLq9cEa/DWOIp4qvrrvsIViDXJYQx7qLkmm/tAJWAfLl4C1tOflSZoCCUigJgLqn/LSUv9sl0Fyg7+Wgl9LOreLsF4fa6mglqV6y6ApXwcB62B5OdbUnlteypcXUyCBtRCwPSkvyZr0T5dWrvKjwd8l73U2AjVX0GyQjEgCMxPIpWzmzMYa8jAnnxxh19SeW15ylAjjkMB0AjXWzRrTPF0yy36jJv3TJZmr/CQ3+LsZWep1LsBLzf8S0lVzBV0CP9MggRQE1tAWriEPKWRZMgzb85L0jVsC6yBQY1teY5rXUVpO5kL9c5JF338a/H1kvD87ASvo7IiNQAIHQcAOV3kx256Xl4EpkIAE8hNQ/+Rn3o1R/dMlcuq1Bv+pTLyTicBaKqiNfaYCYzQS6CFgHewBk/H2WtrzjMiMSgISWAEB9U95Iap/tssgucFfS8GvJZ3bRVivj7VUUMtSfxn87W9/29xzzz3NlVde2Xzwgx9svve97/V7nunJgw8+2Fx99dXNzTff3Jw4cWKmWAy2JAHrYEn6f4m7pvbc8lK+vHRTgG646aabmssvv7y5++67m6eeeqrrJcv1H//4x+ajH/1o8/jjj2eJz0jqJ2B7Ul6GNemfLq1c5UeDv0ve62wEaq6g2SBVHNGPf/zj5vTTT29e9KIXNW9729uaV77yle3PMF500UVHufrkJz/ZvPGNbzy6Tv0PYZOGt7zlLc25557bxv+FL3whdTRVh5dL2cwJaQ15mJNPjrBras8tLzlKxPg4GJB92tOe1qAbLr300uaMM85o2+qHHnroKJDnPe95zSOPPHJ0Pdc/73jHO9q477rrrrmiMNwBAjXWzRrTPCCCKh/VpH+6gHOVn+QGfzcjS73OBXip+V9CumquoEvgt/Q0vPWtb23OPPPM5k9/+tNRUj//+c+3nSlm3XHXXntt8+pXv/roecp/GHCgnj/22GNHwb7qVa9qLrjggqNr/2laRnCq2dmel5ee7Xl5GdSYgieffLJtg+64445jyX/hC1/YnH/++Uf3qONzG/zop2c+85nt4IMG/xH6rP/U2JbXmOasQs0QmfpnO2QN/u2M9DETASvoTGAXEuzb3/72hk4by/pj9/73v7/57ne/23bmmH1nZofZm3vvvbf1dssttxzN8LA64Fvf+lZ7/5vf/Gb7znXXXdfO2vPuJZdc0vzud7+Lgz/6/zvf+U7ziU984uiaf5jxf/Ob33zsnhf1E7DDVV6GtuflZVBjCn75y1+2Bv+nP/3pY8mn3b/hhhvaLWHoB+o4M/8M2uIeeOCB5qyzzmrvP+c5z2luvfXW9j5L8vHPNQPOvMfqLgaAh9yPfvSjVq98/etfbwhPg3+Ils9iAuqfmEaZ/9U/27lr8G9npI+ZCKylgtrYby4gP/zhD9sOGoY5+zK/9rWvHZvt/5//+Z/WYH/Zy17WYJz/6le/au688862g3bbbbe1M/Pvfve72+uf/exn7YAArJn1+elPf9p+D4CO3bve9a7NCfjrXTqAH//4x5uLL764HVxgsEG3LgLWwfLyXEt7Xp7k4aXgPe95T9vOowvYP8+sf3C//vWvG5b2U8c/+9nPtu1+WL111VVXtXqCrWE8Z7sW7T3/P+tZz2oHlvluy+tf//rmnHPOCUGecv7DH/7QDh584AMfaJ9p8J+CyBsDBNQ/A3AyPVL/bAed3OCvpeDPkU6WLv/+978fdaCUNrmPfOQjDTOZuJ///OfNO9/5zuYnP/nJJq/H7oW4w00+OPOZz3wmXI4+M9qOYTT30jkStJYKOkdZGi2whXuknPPRPmbVMfw5/vM///Mo1d0l/S95yUuOzcBTRpjVufHGG48MfgYHgmMGH6N/yFEnmdmnE8eMjwb/EK06n1kHy8utpvbc8lK+vHRTwAw7H3bFMEc+r3jFK47NynMv9EvQG+gFylxw6JgLL7zwyOD/8Ic/HB41hM37DBxvcgxIM5AcwtPg30TJe30EbE/6yOS7X5P+6VLJVX40+Lvk97hGaQTBbTvzYZquY4ka77GUDMMbgx+lxgfPuI6PoJhCGF/+8pfbd8PIOIYQe9F2cf/0T/90zOjaJYwx7+xbQXmfWWLdMgn893//d1tmQ+oYlGKfJmU8DEZ1DX5mZXjOMv9wcM1MDkv++T8u+3zZmXt9HbkQdzgzmMWggu4kAfhx1OxqyAODX5TXJ5544lgZrpl7nPZ923PCytWm11BeYrZr/p9+zqOPPnosi6zg4iOvGN7BIbNg8DOAy3XQEZy5Pvvss48M/m9/+9vh1fbMYHPQO/ED9u3z/sMPP9yuHCNu+l1sLRurV+Lw/H8/AjXWzdrSTDvLCswf/OAHbX0Zkhj1Ab/xt5iG/Jd6lkL/lEp7rvKT3OAvBWxqvKkBs+yM5WTd4+Uvf3nD0b3PdXdvcxjZDmkbOncVEV8hj5XjWIP/b//2L4pyKK74Gco5ldulgvIOipl93GH/Xqr0GE5aAnS+6Jh1HTM3lFdc1+Bnzz4DZ7H7xje+0f5EUjD445/2+9znPtc7sEU4lJHY8dN8dPx0JwmE+n3yTn3/LTkPrNAKvxAR0km7y/LhbifqS1/6UsOz9773vUdC4FsY4b34vOuA7lHAif/ZpT0nCbbpiQVRWXBhsuL73//+sZSzh5/yHiYx+D8Y/HzV/wUveMEx/+gF3glL+tkaEBz9Ft7vxsFz6mFYfRbO+GUQwMHhQDDfGfYcNbla0sxqR/pe3X4/97p9e+oaNkXIG/rmvvvuW6xYdtU/i83QDAnT4E8EldFkKgYfKYuPoEDie/yP33gE+n3ve197r/vhGpaZ8TMxQ46CTjxUYhQUR6io4TqcmeGMHXvjSAcdTdLEXjiuw0GY119//dF1t4MahzX1/7EVFH+k55prrmme//znt+kMjRBn3TIJ8MEl5HP77bc3v/jFL9rZ/jDDz15MXFjCGT68xzVlmdUuyJ2BMcLgS/vB4Gc/JsqJDt6LX/zihl8D2OSCfwa/2KNJWWf5P4MMunURCO3B0nLFCiTKM50lZheZKaEchhnKYNizJzncIy8MaAb3ute9rmFvM4ZRfPBNjCW5se05abZNX5LkyqaFiQ/qB30d6gYGO4P6DAzTXoc+B/UCfcB1GAygv4J/9AP1LFzjl3fREeiK8IsxY3NK/8mP9o2lpb+l6p9YMhj7YZKM7S4Y9NSPYHswKE27jKPOUJ+YrKRu8SFL3sUe6E5UxnGU/H+K/imZzpJxa/Anoo9BSqVnGTOViQPjnZEzDgydcJ/la/jlHdzdd9/dXodGY9v5pptuOpbqL37xi+375513XvOa17ymPRj9JpxwHc7MFvW5f/iHf2g/mBOe0xgQBktQ53BDFZRnzOxeeeWVR1/a7eMyR9qmhBnSNeWdQ/CLDPkYUyiLcEJphA8jwQCDKCzjRwHReePL+/hlhoV36cThMOC5RxnmHMIb+sYF3wsIX2rGP8tE2RqjWxcBZMuxNEe7S8dpUxvKahbSzGAXbTpGD0YG/mOD/6UvfWlzxRVXLC1rp6RnqD3Hc01t+imZ88asBDD0qSuhXacOvPa1r20NkhAxEx/UF/zhmMHnmneoO0wIUMbCDD8ffI3DmzJApsEfqHseQ4ByyLFkx/fBSONXv/rVU5LJihmehTqCrcI1H1IOjtl97jHotkS3Tf8sMc2505Tc4KdAcCzdpU4nvytOmIw8MyPO8bGPfezI4OcnYsL94Df8FjnKCsMWg/s//uM/Gu6Hg/30b3jDG46uuR8v52e0jfeYwY/d2CX9zBgxE8uBYUQnNFwzs8SIXrjmzMh7KtetoFzTGLEU+9nPfnbLM8hp6Mx7JY+QttxpSCWHHOEwYjzF0KZcd39GCYOfjiCOLTSbjKi+vBBWrLz6/C3lfu6yVHt8oQ4uRX6kI3worDtAG9IYfv4LncFeyjBz0jX4aZdZ+YKjzAd/IZylnClDXTlwb4ltekhnjeV+KfKeIx3M3lMXkMsYh3HPB4pj/8HgZwCZlV1TwhsT5xr81Fjul5zm0J4suWxgJ4SftOymk74RkytBVzExw0AzDu7UKRz9uPB/e2NBf0hnDXLYhCxXujX4N9Hf4x4//8UHXzhYuo8B/c///M/tEe5jjMfuK1/5SntJhUTwGNnhCAUhXAcDPLzPUjX8hMGDcH+swf+v//qvrRFF5R5zpBzdCxX0tNNOa2d1w0xvyLPnvwye9XEIsj6Uc2zwrz3PfTL3/ql14hnPeMYiFX3YjoLhP8V1DX7afDpqDAwH+TPAy/aAJbnQnpNGBpJZqWObfmp5DTLc9bwkmS8xLbHBv8T0LSFNu5Y93xuuz0uQ7aY0MEiM7Lq2xya/3EPnMOvP6mT0Ee9iy3TtjL73S9yP9U+J+PeJM9SrfcIY825yg39MpEvwMydgZjKpLFQaKgx7M/mfWRr20fQ5DH5WAsRf42cPDTPe8b14hI3nrCRgWSiVOhzh42ThOpzjd0kHBv+mD6v1pTHl/biCwon8Y/yHI8ho2zn4P7RzSlnUEBbL/6lXh+ByluVQv3LGmTKu2BBeUtlgtgS2YQ8yaWPJJIO08cE2sNjFBj/6gjC4x9YtVqqwNJNrZmHisOMwSvwft+d8E8Y2/aQuS1neS8i2pjipE/SZpqwAqyl/KdKasjymDqtGfRTSnEI2c4TBylzSGJbsEwf1I9ZD/H/nnXe2tgR+0atsgWTLMfYEK82wY8JHNOdI5z5hxvpnn3DW/K4GfyLpsnSMisEyeCoLMzCf+tSn2k4Zo2Is3+QjMlQYfi+WGZCu8R1m+EPjMXQOPy9DvLiwH3ToHZ51DSY+gLYEgz+IgX1CYUl/rEiG8hXe9SwBCRwmgdA+LCn3fMOFdPHByuBY3k57y3HRRRe1z8MHLIOf2OBHR6Arut+p+Pd///f2XZYtL8X1dbhs05ciIdMhAQnMQWCJ+ifO54kTJ1p9gUEfHAZ/0EWcsU0w+rEpyA96KLZRsGO4z3eRluj69M8S01oqTRr8iciz154Kw4dm+OAFnRwOPjBDJaGicc0XwkPlYnY+duxLjmfyh/7vzuywbJSP7IWDbwGQnnAdzuzBiR1ffy71QahtFTT+aN+Q8R/np8T/S2/sSzAxTgnkJLDEOvid73ynbfvvueeejSho70n3kMFPG9lt6wmMj5zxLr8hvhS3rT0nnbW06UthajokIIHlE1ii/ulSwx4Y+sUv9vBj8OMw9rFTuo4whj783fWf83qM/smZniXGldzgr6HgI4jU6WQEjeWX7DPu/gQf1+FL5VQYRs1YYh9/fI80sQIgpGvoHL5aPlSgxu7hZ1UBWwJKuCkVlF80eOc739n+LF/X+C+R9jjOIKv4Xq7/YcgsX3yEVR+k4V3velfD14q7DmODLSbBmODDRmFQqHumbOM442/MEaehGzdKhZ/dm9Mxes3POt14442zRHPbbbe1y9wInHL5X//1X4PxPPXUU0eDgGEwMD7HS+0GA/LhRgIl6+DGBP31Y0esvKL9Dz87GfsdY/B/85vfbHVCWNEV3ufn/MgzdXUpbkp7TppLtulLLC9T5Ei7zWqRMcem354PcbGdhJ/Dm+L4Gv6YvcD8nFdo1+jvMPkRzxhuixPDYpefUCUO4mYwDB3H1hLqWnBMjrAdprvkn29OsKUylRuasImfhbahpExT5flQw6mhPbnqqqtandH37ZfY4L/wwgvbLba06cGFQWa2lC3RTdU/S8pDrvKjwT+D1FFu/KwSX1+mEKJ8zjnnnFbJ9FU2koHxzeoA/PQd+OHDgNvcGIOfL3NS0DA8SrhdKyj7keCL0sb4P2THig32VoUDeYZVHJQ/Rmo5uh9bYbCJASY+BoZxzu/ZB7/xTxlxj1+QwF1wwQXtzxyF58TF/5uO7lJjOldhcAHFQmeMdIYPVnZl+Jvf/KY1ouMv69NJ4qeY2PLBdpkQ3qZ3iSOkl6XVm9x3v/vd5uyzz956sAUndsTLx8huueWWtiNJ/tmzPOSQBbxIV/dAdjwr5Yi7ZPwp8r3UPFDvGORFxqzywviibWfWn7pHuuNllrCgzoWf5aOs8RNhfPCVOsNgG0YMfvjd5CW5Xdtz8pC7TV9qeRkrT4xE8kBbgh7sOygndPRjx+9uB4P9/vvvb8sSA7DhiNtuyhv9jfhgVSDlOb7H/2xpjB0Du2wZxLGthfQOfcMIY5vlwuHgXdIfrsOZNAdHu0reSQ97jmmLeYd71C90BfUl9Lsoo3ycmLSEjyhzZnCBe+F9wuAIvxTDLwF87nOfGzy6HzQmLMLcdpA+XC6ZBnZLPQdeS03fpnTVkGb6VNQT9BFGO/0f+mWsuqKekAfOOAbquGaWH0Ofss3gNXUi9C83cSh5bx/9UzLdxJ2r/CQ3+EuDGxv/nICZdeFjF8QRPijFKPrQrCfpxpinwqE4+w4qHMo1OOLaNMqPkqdib3rGUlMcs0SEx+xjCZeigjKYcugOedJAhxlDeDDLQQN9++23N3fccUf7f3d2hYab2UcGmWJHeJSLIcdsDWU8OAx3Zuz6HB1TOmw4/sd4QeFQR+IOHM/D9y54FuTLIBqdONJL5wyDm5+r7DrqGB1S0kZ+WXFDx2vToBYDCOyPjg86f6yIiO8xyxo7DDT40HkNH2Yjju4RlsfxLh1T0rzJ0Rklr6UccZeMP0W+l5wH5ItxHtIYzpRnyhLtYOwoW8Hg5z7vh21g4V0+tkr5XZJL0Z6Tn1Dnl5S3paUlGIe0i0OO7Xpdg//iiy9u3vOe97Sv0fZSpjAEwvHqV7/6KEh0B+UR43noQNcwgBwcZYH3MNrRQXz0i3hYnch1OH7605+GV9qthQyuUi9oK/k/HLzLAC7X8QAZA62km/YVo3xoQIGIWIlFO43/8847ryGvGPW0+6wECB83o99E/QqDyhj7fJdp6CC8IUe6yVufyyXTvviXcj+0cUtJz5h01JJm+vqUc2yDkGbOlH/6gZTB4NhqFvujng318cJ7pc6p9E+p9OeIV4N/Rsp8aAnFiiFPpcLoHxodwx9KEsXZdxBObPBfdtllxypuXIn7/kc54xiM4ONPpZwVNA15lliy9JHlmcwG0knhg2DxDCDL2+kwdQed6DCGTg2NPTLZZvDfcMMNbTkNS/3JRfhyODNCXYcBT1kMHy8LBj/+KH907sKSSwYu6JCRH94JnX8Ma/yFDi73eR4b4wwghBmv4I84qDRYqxsAACAASURBVC/45YOVsULrppNrOmR33XXXpkftPdKJcmSrBHGQJmZouEc8/JJAOOIlo0s2+HszW9ED5MuxZEc9o2xQR0Kdm5JeBrCYfY3L9pT35/Zrez434ZPhB+OQ8kCbv+nA2B9j8NOG9TkMfozcbY4B0tjgx2CmPgYDmRWOXLOSLNzjTLvYdYSFcREcBjk6YVPbjcHPIDB1YttB+aT/RTvNjCWrxdCJ/M9EC9tm+P9Nb3pTc/3112+ML6RplzMD3gya9LlcMu2L3/u7E6hB/3Rzh33y6KOPbi3nrErrfjS2G9YSrtU/26Wgwb+d0d4+KIgoQPb68n+fY8Y9zL73+WE5HktsUjiUbTC0UoQ3NYy1VNDSjT0fimTmhFlzjHxmcDBAuzPOdAqZmaeMsayRI94jyWATsyR9Bj8GBx0jwmUFCsY5S+vf//73Nww8cZ84YoMEw4aOHWkKLjb4eU5nMMzWMyjAwewKXIPBz6z9pZdeGoJozyzHZ/aKdIUBAmaAQplmgI0ZfhxphQnpG/p+wDaDP/wKBwMczOCTdsoxHdQQ17FE/vVCg38TlXT3StfBdDmpN6S1tOc1SCAYhxiwtC2bDjrqscHPNhL6GBjItKf8T7tMu83/3YN2nHaTMJj9Qz9sOmhX0RmhjWcWkXthqTo8xyzpZwac1VXER31mgJZrjGQGJfifA0M9OAz+UPe3ndFtOLYzMAAeDiZAeDdcc+Z6HyMH+fCtgPhgZpWVOfE9/g8Dw7lkGth5TkcglL10IRrSVALqn+3Ekhv8tRT8WtK5XYT1+lhLBS1dljBSmelmBgGDlz3rzL6zZ4vZdc503pi94Bn74sOsRjzjQMcvGPzkib37HMFAxqANeaUDRseRzhEdGYx+Zkgw7unUBEenjU5i6NRwPzb4WYLJrCdxx3vtuwY/HUhm+WPHTAwGOLNcpIffKY9dHA/3YcDABO/1uSGDn/yTF4z70CkN+125RxrilTlwD44OOexg1T1Y9soz3e4EQrncPQTf3JdATe157eUlGIe0aeGXD0J7zTlsCYkNftpnBmzjg60isIjvhf8JOzgGURlA2HR0V3W97W1va7+LEq9iGWPwM+iL/kBnDB2xHmCQgEFX4tp2hLyQLyZNwhG2LYRrzjDZx+Bni1t3cCSUOXRd/IxVD7jcMg08PO9PIMh2/5AMYVcCNemfbh5zlR8N/i55r7MRqLmCZoM0IiI6EBi3bNGgI8GsB4YrnTQaEmaBmEng/3hJP6sChgx+ftqRg6XyODpUdEpix+qCeH88ezLpgOKYeWcWvjvzHRvidDiZGeKr93Tygusa/OQrHhDAH7P7Yd9k3LkMYcTxhHvbzkMG/5NPPtnOpLEMlBn+eDsBBj8DLuHDV5zjNGHwIydmvboHWzKQTSmXS9nMmb815GFOPjnCrqk9r728xMYhBjCDr8zCc7DdiLYGFxv8oQzQjuGf7/+wgir45Tl64kMf+lDw2rbl3Zn/oWteZL874bJPn9l4Dto8mJPWcI8zOiI4DP4PfOAD4XLUmfwywIwRz57jviPWW+g98gwDDgaTSVu4DufuryiNSlCPJ3RwiCNeVRd7zyXTOM4l/l9j3awxzUuU/T5pqkn/dPOZq/wkN/i7GVnqdS7AS83/EtJVcwVdAr+QBpZThoPZApb2Y7hi+LPEn5kdjGVm42M3ZPBjYHcdSzWZUYkPZrUx1ON7YYCg+364Jo3MxrMdgHjiDzcFP12DH+OdjmbsGKxgRUOfS23wh3iCwR+uOde8pH8NbeEa8hCXpxr/tz3PJ7WucRi2RJECjPZgxHcNftpVViHhH3l1DX4+dsq2r+AYzCUMjvAlewZpuabtpi0MzznHjpUCrF7iIEzqKCuywj3O8Uf28IMBP8URB8v82YtM+AwAdw/uwyQ43iEPGOEc5BE9Fq7DOV7hEN7d9cyABysRAu+wvSAOL5dM4ziX+H+NbXmNaV6i7PdJk/pnOz0N/u2M9DETASvo/mBZNs7yfDpbGN4Y+Bj6GMfsMaejwQw6+9/jmRtiDgY/nRA6XnQSw5L+TQY/2wToEMZHmCmJ733sYx/bmrEw4xOvDohf6hr8dA75EGHs2I/PBwT7XG6Dn/hYkhqOeCCDGX46lZtc6a/0b0pTbffscJWXmO15Phl0jUMGc1lxxMFHRzcZ/Biw7FfHIA4z68EAJeXMuPNe/DHWOEesWqKeha1KrN4a+sBp/O6YJf3MrHd/2i8OY9P/6B0+wofBv0ln8Q5pjg1+Bh1oizlCu8E53Av32RqRwjEADldWPuDQ1d3Bd+6XkGmK/BlGvp9Vk3U/AfVPP5vwRIM/kPCcncBaKmjoNGQH+Ncv0NPxYpkgew+ZRWBJPT8vxFJFDHgMezoxfMU/dtxnZpqOEs/olAwZ/PG74f+pRjVp5GN6xBk6QCGs+Nw1+Pl4FJzZG8lSeQx9roeWXU5NG/EPLekP6eub4WeQhQ9jhSP+uUsN/kBvnnPJOjhPjuoLdS3teQ3kY+OQ1VWsmooPDGEcxmX4WT5mrhk05d3gaGdvvPHGo4+x0nb1OWbGMcqD6xr86B4GLze5bQY/bTr6B8N9rCM/1Hu+ozLF4A/hs3efOPmYMvoxdpdccsnRB20ZAGFgZOwRBlMIj18YYKsd27aCY6sd8bHKINYRJWQa0uR5PwLqn/34pXhb/bOdYnKDv5aCX0s6t4uwXh9rqaBLKUvMYmBI86G+Bx98sP3CMmc6hKSR//lAXnB0dLjPbxOHPeb4ZcaEjhD3OJihQFbxb9OH/xlUYLAhXIdzHA8z3eHLyMTHh/PCl/RDWrpnPiyIXz4SFRx75LnHQT755YshN2Tw01mMl5aG/8k3HedwHc7MfgXXZ/B3v1UQ/HOGI+kmTd2DlQo80+1OIJSL3UPwzX0J1NSe115eYuNwSG5seQoGf9cf+oJBStpwjvAB0q4/2uLwnZF4RRYGflg1Fn8vhvb+/vvvP3aEr+nzfvcZBjLbzjCMY2O5m47uNXHTVuPCkn70TPdA1mGGH27oNwZ2iY90sR0OA5y4+cYA4aJfGBDHhV8yQDeMOcLKrltvvbX1z/vUjdgxUM1KMAbcwyBHTpnGafH//QnU3p7sT6B8CDXpny6tXOVHg79L3utsBGquoNkgjYyIzheNBks26bRgRG464r2ebAUIRn3o9G068xNOdEYIe+zBIAIu/IwdRi4fk+rrVI7MZtsp46vQ3Q7UpveHDH6Wt7L1YOwRd3R3NfjpRLJSoXvQ2UV2pVwuZTNn/taQhzn55Ai7pva89vKyzThkexftH/nEwA2OmWuMTAxXnvHTrMx0E94mF1ZSYSB/+9vfPuYl/BRqCAsDFnfzzTcfDSJs0ifde8yC06ait6a4Cy+8sB0o4J1g8BNO9yCfweDnWzYY+nwcMOzRDwY/4bCKgV9xoU0eo2P60ssgC+09A+h9jgEGVmDAj1UEuWTal56l3K+xbtaY5qXIO1U6atI/3TznKj/JDf5uRpZ6nQvwUvO/hHTVXEGXwC9OAzPWfH15aY4lnvv8vNE++WFrw9CS/13DZpCETmrsGBBABn2Ofa+8t8nx/QRmvUq5NbSFa8hDKfmnitf2PBXJ7eGwBJ7Z6T6jlHaXgcXuNi6Mdtoqlqf3Gflx7Pyc6tAgLW0efvr2/cdhDf1POGPSE4fBdoSwIgDjvW/FF9sU4rDjX08hPFYnxAO6cRy7/g+PIX0Qhxv45pJpHPcS/6+xLa8xzUuU/T5pUv9sp6fBv52RPmYiYAWdCazBSuDACNjhKi9w2/PyMjAFEpBAfgLqn/zMuzGqf7pETr3W4D+ViXcyEVhLBbWxz1RgjEYCPQSsgz1gMt5eS3ueEZlRSUACKyCg/ikvRPXPdhkkN/hrKfinnXZa0X2z20Wzfh+hgiKLml0tZb5mxqZdAkMEbM+H6OR5VlN7bpudp0wYiwQOgYD6p7yUa9I/XVq59NHBGvx8uAXIS9z33C0Ma71m7x8yePrTn77WLJovCSyeQC5lMycI2/M56Y4Lu6b2fA1lfpxU9CWBugjUWDfVP+XLWE36p0srV5lPbvB3M7LU63PPPbc1NlN/rGWp+V1iuvgZMwp6+LrvEtNomiSwdgK5lM2cHG3P56Q7Lmzb83Gc9CUBCfQTqFEfqX/65ZnrifpnO+mDNfj5+RWW4fDTZXzd9YknTjT8VKrH/AxOnHiy/Sou7JHBpZdeur2k6kMCEpBADwHb8/nb7T7daHveUyi9LQEJHAQB9Y/6p4aCfrAGP8Lh91oxOMMRRhY9/0078z4Xh8Cb87/8y7/UUE8G0xg4DXryoQQkMCsB2/N52+3QznXPa2vPZy2kBi4BCaySgPpH/bP0gp3c4A+dgaVnPKSP2WWWlLOPPO64+P/JgZDULNjv9PKXv7xhVHQNrrYyvwbm5kECmwjYns/XbvfpgRrbc9vsTbXHexKQwD4E1D/qn13KTy59dPAG/y7C8R0JSEACayGQS9mshddc+bjkkksaDt38BCzz8zM2BgnsQsC6uQu1/d9R/+zPcNcQcpX55Ab/rhn2PQlIQAISyE8gl7LJn7O6Yvy7v/u75u///u/rSrSplYAEJJCQgPooIcwJQal/JsCq1KsGf6WCM9kSkIAEJLAOAnw4NnR0/eWYdcjUXEhAAhKogYD6pwYp7Z9GDf79GRrCgRMIHfUDx2D2JSCBHQlcdtllRwb/Wr5tsiMKX5OABCQggYwE1D8ZYReMKrnBr/FTUJpGXYSAZb4IdiOVwGoInHHGGUcG/7Of/ezV5GupGbHNXqpkTJcEJJCbgPonN/Hj8eXSRxr8x7l7JQEJSOCgCORSNgcFdUJm77///iNjP8jigQcemBCCXqcSCJynvqd/CUhgXgLWzXn5dkNX/3SJ5L/OVeaTG/z5URmjBCQgAQnsSiCXstk1fWt/74orrjjF4L/yyivXnm3zJwEJSOAUAuqjU5DMekP9MyveRQWuwb8ocZgYCUhAAhI4JALPfe5zTzH4zzzzzENCYF4lIAEJSKAAAfVPAeiFotTgLwTeaNdDwBHp9cjSnEggJ4EHH3zwFGM/tCcPPfRQzqQYlwQkIAEJHBAB9c8BCbtpmuQGf+isHBZGc3vIBCzzhyx98y6B3QlcffXVvQb/Nddcs3vAvjlIwDZ7EI8PJSCBAyCg/lmGkHPpIw3+ZcjbVEhAAhIoQiCXsimSuYVH+vznP7/X4OeZbh4Clvl5uBqqBPYlYN3cl+D499U/41nN6TNXmU9u8M8JxbAlIAEJSCAtgVzKJm2q6w/t4Ycf7jX2g0weeeSR+jNqDiQgAQmMJBDavpHe9bYjAfXPjuAqfk2Dv2LhmXQJSEACEqiTwLXXXrvV4L/uuuvqzJyploAEJCCBxRJQ/yxWNLMlTIN/NrQGfCgEHJE+FEmbTwmkI3DWWWdtNfj/8R//MV2EhiQBCUhAAhJomkb9c3jFILnBr/FzeIXo0HNsmT/0EmD+JTCNwGOPPdacdtppx47QjnTv41eXlkBgnTZUQ5OABCSwfALqn2XJKJc+0uBfltxNjQQkIIGsBHIpm6yZWnhkf/7zn5vuEeTQvc+1Li2BwDptqIYmAQnsS8C6uS/B7e9v0jGB+6Zn20PUxz4EAvt9whjzbnKDf0yk+pGABCQggWUQyKVslpHb5aZCOSxXNqZMAhLIQ8B2MA/nbixy7xJZ37UG//pkao4kIAEJSKAyAna4KhOYyZWABCSwEgLqn5UIciAbGvwDcHwkgTEEbCjHUNKPBCQwRMB2ZIiOzyQgAQlIYC4C6p+5yC4n3OQGv4VmOcI1JXkIWObzcDYWCayZgO1IPunKOh9rY5KABJZPwDaxnIxysdfgLydjY5aABCRQnEAuZVM8owtPgHLIJyBZ52NtTBKYQsC6OYVWOr9yT8dyaki52Cc3+KdmVP8SkIAEJFCOQC5lUy6HdcSsHOqQk6mUgATmI2A7OB/boZDlPkRnHc80+NchR3MhAQlIQAIVE7DDVbHwTLoEJCCBigmofyoW3sika/CPBKU3CfQRsKHsI+N9CUhgLAHbkbGk9CcBCUhAAikJqH9S0lxmWMkNfgvNMgVtquYjYJmfj60hS+BQCNiO5JO0rPOxNiYJSGD5BGwTy8koF3sN/nIyNmYJSEACxQnkUjbFM7rwBCiHfAKSdT7WxiSBKQSsm1NopfMr93Qsp4aUi31yg39qRvUvAQlIQALlCORSNuVyWEfMyqEOOZlKCUhgPgK2g/OxHQpZ7kN01vFMg38dcjQXEpCABCRQMQE7XBULz6RLQAISqJiA+qdi4Y1Mugb/SFB6k0AfARvKPjLel4AExhKwHRlLSn8SkIAEJJCSgPonJc1lhpXc4LfQLFPQpmo+Apb5+dgasgQOhYDtSD5Jyzofa2OSgASWT8A2sZyMcrHX4C8nY2OWgAQkUJxALmVTPKMLT4ByyCcgWedjbUwSmELAujmFVjq/ck/HcmpIudgnN/inZlT/EpCABCRQjkAuZVMuh3XErBzqkJOplIAE5iNgOzgf26GQ5T5EZx3PNPjXIUdzIQEJSEACFROww1Wx8Ey6BCQggYoJqH8qFt7IpGvwjwSlNwn0EbCh7CPjfQlIYCwB25GxpPQnAQlIQAIpCah/UtJcZljJDX4LzTIFbarmI2CZn4+tIUvgUAjYjuSTtKzzsTYmCUhg+QRsE8vJKBd7Df5yMjZmCUhAAsUJ5FI2xTO68AQoh3wCknU+1sYkgSkErJtTaKXzK/d0LKeGlIt9coN/akb1LwEJSEAC5QjkUjblclhHzMqhDjmZSglIYD4CtoPzsR0KWe5DdNbxTIN/HXI0FxKQgAQkUDEBO1wVC8+kS0ACEqiYgPqnYuGNTLoG/0hQepNAHwEbyj4y3peABMYSsB0ZS0p/EpCABCSQkoD6JyXNZYaV3OC30CxT0KZqPgKW+fnYGrIEDoWA7Ug+Scs6H2tjkoAElk/ANrGcjHKx1+AvJ2NjloAEJFCcQC5lUzyjC0+AcsgnIFnnY21MEphCwLo5hVY6v3JPx3JqSLnYJzf4p2ZU/xKQgAQkUI5ALmVTLod1xKwc6pCTqZSABOYjYDs4H9uhkOU+RGcdzzT41yFHcyEBCUhAAhUTsMNVsfBMugQkIIGKCah/KhbeyKRr8I8EpTcJ9BGwoewj430JSGAsAduRsaT0JwEJSEACKQmof1LSXGZYyQ1+C80yBW2q5iNgmZ+PrSFL4FAI2I7kk7Ss87E2JglIYPkEbBPLySgXew3+cjI2ZglIQALFCeRSNsUzuvAEKId8ApJ1PtbGJIEpBKybU2il8yv3dCynhpSLfXKDf2pG9S8BCUhAAuUI5FI25XJYR8zKoQ45mUoJSGA+AraD87EdClnuQ3TW8UyDfx1yNBcSkIAEJFAxATtcFQvPpEtAAhKomID6p2LhjUy6Bv9IUHqTQB8BG8o+Mt6XgATGErAdGUtKfxKQgAQkkJKA+iclzWWGldzgt9AsU9Cmaj4Clvn52BqyBA6FgO1IPknLOh9rY5KABJZPwDaxnIxysdfgLydjY5aABCRQnEAuZVM8owtPgHLIJyBZ52NtTBKYQsC6OYVWOr9yT8dyaki52Cc3+KdmVP8SkIAEJFCOQC5lUy6HdcSsHOqQk6mUgATmI2A7OB/boZDlPkRnHc80+NchR3MhAQlIQAIVE7DDVbHwTLoEJCCBigmofyoW3sika/CPBKU3CfQRsKHsI+N9CUhgLAHbkbGk9CcBCUhAAikJqH9S0lxmWMkNfgvNMgVtquYjYJmfj60hS+BQCNiO5JO0rPOxNiYJSGD5BGwTy8koF3sN/nIyNmYJSEACxQnkUjbFM7rwBCiHfAKSdT7WxiSBKQSsm1NopfMr93Qsp4aUi31yg39qRvUvAQlIQALlCORSNuVyWEfMyqEOOZlKCUhgPgK2g/OxHQpZ7kN01vFMg38dcjQXEpCABCRQMQE7XBULz6RLQAISqJiA+qdi4Y1Mugb/SFB6k0AfARvKPjLel4AExhKwHRlLSn8SkIAEJJCSgPonJc1lhpXc4LfQLFPQpmo+Apb5+dgasgQOhYDtSD5Jyzofa2OSgASWT8A2sZyMcrHX4C8nY2OWgAQkUJxALmVTPKMLT4ByyCcgWedjbUwSmELAujmFVjq/ck/HcmpIudgnN/inZlT/EpCABCRQjkAuZVMuh3XErBzqkJOplIAE5iNgOzgf26GQ5T5EZx3PNPjXIUdzIQEJSEACFROww1Wx8Ey6BCQggYoJqH8qFt7IpGvwjwSlNwn0EbCh7CPjfQlIYCwB25GxpPQnAQlIQAIpCah/UtJcZljJDX4LzTIFbarmI2CZn4+tIUvgUAjYjuSTtKzzsTYmCUhg+QRsE8vJKBd7Df5yMjZmCUhAAsUJ5FI2xTO68AQoh3wCknU+1sYkgSkErJtTaKXzK/d0LKeGlIt9coN/akb1LwEJSEAC5QjkUjblcmjMEpCABCRQAwH1UQ1SMo01EtDgr1FqplkCEpCABCQgAQlIQAISkIAEJLCFgAb/FkA+lsA2Ao5IbyPkcwlIQAISkIAEJCABCUigBIHkBr/GTwkxGmdJApb5kvSNWwISkMA0ArbZ03jpWwISkIAE5iGQSx9p8M8jP0OVgAQkUAWBXMqmChh7JvLEiRPNpz71qeayyy5rbrvttubJJ5/cM8Rpr//5z39ubr/99uaRRx6Z9uKB+bbMH5jAzW41BKybu4nqe9/7XnPTTTc1l19+eXP33Xc3Tz311G4B7fjWD3/4w+a9731vc9VVVzXf+ta3dgzlMF/LVeaTG/yHKS5zLQEJSKBOArmUTZ10xqf6C1/4QgPL8847r3n729/evOhFL2qvP/rRjx4Fcumllzbx9dGDBP88/vjjzWte85o2zltuuSVBiAYhAQlIIC8B9dF03ldffXXztKc9rbnooosadMwZZ5zR6oGHHnroKLDnPe95sw0Ef/e7323jf8ELXtC89a1vbZ75zGc2r3jFKxoGoHXLIaDBvxxZmBIJSEACEqiUwJlnntlccsklx1J/xRVXtB2hP/3pT+39l7zkJe0szDFPiS7oKLOy4FnPelajwZ8IqsFIQAISWDABVpHR9t9xxx3HUvnCF76wOf/884/u4WeulV8XXHBB89KXvvQorgcffLBNEwMBuuUQ0OBfjixMSaUEHJGuVHAmWwIJCTC78Za3vOVYiD//+c+bd7/73c0PfvCDhhkW2orTTz+9/f9Xv/pV88QTT7SdMmZnmBVhZcAf//jHNow3vvGN7eDAOeec075H+Pfdd9+x8OOL73//++0l8Wjwx2T8XwISkMA6Cfzyl79s9cOnP/3pYxlkWf0NN9zQ3HPPPUe6h5n/V73qVa2/Bx54oDnrrLPad5/znOc0t956a3sf/YMO4ZpBbHTWueee2/z4xz8+Fn58ge5iO0FwbG3jvSF9Ffx6zkcgucGv8ZNPeMa0DAKW+WXIwVRIoCSBL3/5y20nh87S9ddf37CnMjhm+L/zne80zLqwx5H/f//73zcY8czCsPTyK1/5StvRuvLKK9vXgqHPfsxf/OIXzY033tiG/9vf/jYEu/Gswb8Ry7GbttnHcHghAQlUTOA973lPqxte9rKXtVvG4m/H/PrXv271C23eZz/72VYvYbxzjS567LHHmk9+8pPtNdvSMPh5xkoxZugx3l//+tc36KOx7pprrmlXthG3bjuBXPpIg3+7LPQhAQlIYLUEcimb1QKMMkYH5xOf+ETDEke4YnzHsxzxkn7u4+dHP/rRUQh0vJjtx9HBIpzY0Qm7884741un/K/BfwqSU25Y5k9B4g0JLIKAdXM3MaBHPvjBD7Z6A4bsoY9n5bkXlvRfe+217T7/eI/9m9/85ubCCy88Mvg//OEPHyWEsHn/Zz/72dG9Tf8wsM33BPB71113bfLivQ0E4MUxt0tu8M+dYMOXgAQkIIF0BHIpm3QpXmZIzNKH5fikkJl4ZjrgG4z62OD/+Mc/3j7DwA8Hfvmf5f4Y/HTgYve6172u/ShSfK/7vwZ/l4jXEpBALQTUR9MkxbaxRx999NhLP/3pT5tXvvKVDUv1g4NrMPjZLhZ0Tax7zj777COD/9vf/nZ4tT2zFe0zn/nMsXvxBdvT0G9sG/jmN78ZP/L/hRDQ4F+IIEyGBCQgAQnUS4AOFEZ87BgAoEMVOkqxwf+lL32p7XTRYQuOGZQvfvGL7SUGPwZ+7NhTuW1/vgZ/TMz/JSABCayXQNhKFr7hEnLKHn50UljeHxv8zMKznSx2bEHjnbCkP/41GXQU73fjCO8zwMDqMwYZGKzWLZOABv8y5WKqKiJAQ8ihk4AEDpcAy++Z3bj33nub3/3ud+1ySvZI0jbwG8U4frLvHe94R9up+s1vftN+wI8v67MVgH36LMN805ve1PrF4Odd9vaz3x9Dn+vQgesjrcHfR8b7EpCABNZFgJVkfDQvfAsGg/3hhx9udQm6IPxCDLqDPfpch8EAtpDhn338zOCHa/zyLoMAGPv81B6DzX2On4NlNcFPfvKT9kO0zPZzELZuOQSSG/wUFA6dBA6FgGX+UCRtPiXQTwCD/eKLL25nOkKbwNeNP//5zx+9xEeTmPGnc4X7xje+ceSf+294wxuODHoMfn5Tmc5cCI8P921zzNxsWwWwLYy1Pw88155P8ycBCayfANvJMLrRIbRt6JfXvva1xz4cy0Azz/CHYwafa95Bx7D9jD39YYafX5eJw/va177WCzL4C+1qOLuPvxfZsQeB17GbM1xo8M8A1SAlIAEJ1EIgl7KphUeKdLJnn1n5sQ7/rAqIHQb/Rz7ykbYTxs/6/eEPf4gf+/8eBCzze8DzVQnMSMC6uTtcZu/RFfHH+IZCw7h//PHHj/kPBj/7/dE5U8Ibistn/QRylfnkBn9/lnwiAQlIQAJLI5BL2Swt30tPTzD4l55O0ycBCUggFQH1WOuLzwAAIABJREFUUSqSu4UTG/y7heBbSyWgwb9UyZguCUhAAhI4WAL8LNLXv/71g82/GZeABCQggbwEWCVw+eWXt3vw88ZsbHMT0OCfm7Dhr56AI9KrF7EZlIAEJCABCUhAAhKQQJUEkhv8Gj9VlgMTvQcBy/we8HxVAhJoCdiO5CsIss7H2pgkIIHlE7BNLCejXOw1+MvJ2JglIAEJFCeQS9kUz+jCE6Ac8glI1vlYG5MEphCwbk6hlc6v3NOxnBpSLvbJDf6pGdW/BCQgAQmUI5BL2ZTLYR0xK4c65GQqJSCB+QjYDs7HdihkuQ/RWcczDf51yNFcSEACEpBAxQTscFUsPJMuAQlIoGIC6p+KhTcy6Rr8I0HpTQJ9BGwo+8h4XwISGEvAdmQsKf1JQAISkEBKAuqflDSXGVZyg99Cs0xBm6r5CFjm52NryBI4FAK2I/kkLet8rI1JAhJYPgHbxHIyysVeg7+cjI1ZAhKQQHECuZRN8YwuPAHKIZ+AZJ2PtTFJYAoB6+YUWun8yj0dy6kh5WKf3OCfmlH9S0ACEpBAOQK5lE25HNYRs3KoQ06mUgISmI+A7eB8bIdClvsQnXU80+BfhxzNhQQkIAEJVEzADlfFwjPpEpCABComoP6pWHgjk67BPxKU3iTQR8CGso+M9yUggbEEbEfGktKfBCQgAQmkJKD+SUlzmWElN/gtNMsUtKmaj4Blfj62hiyBQyFgO5JP0rLOx9qYJCCB5ROwTSwno1zsNfjLydiYJSABCRQnkEvZFM/owhOgHPIJSNb5WBuTBKYQsG5OoZXOr9zTsZwaUi72yQ3+qRnVvwQkIAEJlCOQS9mUy2EdMSuHOuRkKiUggfkI2A7Ox3YoZLkP0VnHMw3+dcjRXEhAAhKQQMUE7HBVLDyTLgEJSKBiAuqfioU3Muka/CNB6U0CfQRsKPvIeF8CEhhLwHZkLCn9SUACEpBASgLqn5Q0lxlWcoPfQrNMQZuq+QhY5udja8gSOBQCtiP5JC3rfKyNSQISWD4B28RyMsrFXoO/nIyNWQISkEBxArmUTfGMLjwByiGfgGSdj7UxSWAKAevmFFrp/Mo9HcupIeVin9zgn5pR/UtAAhKQQDkCuZRNuRzWEbNyqENOplICEpiPgO3gfGyHQpb7EJ11PNPgX4cczYUEJCABCVRMwA5XxcIz6RKQgAQqJqD+qVh4I5OuwT8SlN4k0EfAhrKPjPclIIGxBGxHxpLSnwQkIAEJpCSg/klJc5lhJTf4LTTLFLSpmo+AZX4+toYsgUMhYDuST9KyzsfamCQggeUTsE0sJ6Nc7DX4y8nYmCUgAQkUJ5BL2RTP6MIToBzyCUjW+VgbkwSmELBuTqGVzq/c07GcGlIu9skN/qkZ1b8EJCABCZQjkEvZlMthHTErhzrkZColIIH5CNgOzsd2KGS5D9FZxzMN/nXI0VxIQAISkEDFBOxwVSw8ky4BCUigYgLqn4qFNzLpGvwjQelNAn0EbCj7yHhfAhIYS8B2ZCwp/UlAAhKQQEoC6p+UNJcZVnKD30KzTEGbqvkIWObnY2vIEjgUArYj+SQt63ysjUkCElg+AdvEcjLKxV6Dv5yMjVkCEpBAcQK5lE3xjC48Acohn4BknY+1MUlgCgHr5hRa6fzKPR3LqSHlYp/c4J+aUf1LQAISkEA5ArmUTbkc1hGzcqhDTqZSAhKYj4Dt4Hxsh0KW+xCddTzT4F+HHM2FBCQgAQlUTMAOV8XCM+kSkIAEKiag/qlYeCOTrsE/EpTeJNBHwIayj4z3JSCBsQRsR8aS0p8EJCABCaQkoP5JSXOZYSU3+C00yxS0qZqPgGV+PraGLIFDIWA7kk/Sss7H2pgkIIHlE7BNLCejXOw1+MvJ2JglIAEJFCeQS9kUz+jCE6Ac8glI1vlYG5MEphCwbk6hlc6v3NOxnBpSLvbJDf6pGdW/BCQgAQmUI5BL2ZTLYR0xK4c65GQqJSCB+QjYDs7HdihkuQ/RWcczDf51yNFcSEACEpBAxQTscFUsPJMuAQlIoGIC6p+KhTcy6Rr8I0HpTQJ9BGwo+8h4XwISGEvAdmQsKf1JQAISkEBKAuqflDSXGVZyg99Cs0xBm6r5CFjm52NryBI4FAK2I/kkLet8rI1JAhJYPgHbxHIyysVeg7+cjI1ZAhKQQHECuZRN8YwuPAHKIZ+AZJ2PtTFJYAoB6+YUWun8yj0dy6kh5WKf3OCfmlH9S0ACEpBAOQK5lE25HNYRs3KoQ06mUgISmI+A7eB8bIdClvsQnXU80+BfhxzNhQQkIAEJVEzADlfFwjPpEpCABComoP6pWHgjk67BPxKU3iTQR8CGso+M9yUggbEEbEfGktKfBCQgAQmkJKD+SUlzmWElN/gtNMsUtKmaj4Blfj62hiyBQyFgO5JP0rLOx9qYJCCB5ROwTSwno1zsNfjLydiYJSABCRQnkEvZFM/owhOgHPIJSNb5WBuTBKYQsG5OoZXOr9zTsZwaUi72yQ3+qRnVvwQkIAEJlCOQS9mUy2EdMSuHOuRkKiUggfkI2A7Ox3YoZLkP0VnHMw3+dcjRXEhAAhKQQMUE7HBVLDyTLgEJSKBiAuqfioU3Muka/CNB6U0CfQRsKPvIeF8CEhhLwHZkLCn9SUACEpBASgLqn5Q0lxlWcoPfQrNMQZuq+QhY5udja8gSOBQCtiP5JC3rfKyNSQISWD4B28RyMsrFXoO/nIyNWQISkEBxArmUTfGMLjwByiGfgGSdj7UxSWAKAevmFFrp/Mo9HcupIeVin9zgn5pR/UtAAhKQQDkCuZRNuRzWEbNyqENOplICEpiPgO3gfGyHQpb7EJ11PNPgX4cczYUEJCABCVRMwA5XxcIz6RKQgAQqJqD+qVh4I5OuwT8SlN4k0EfAhrKPjPclIIGxBGxHxpLSnwQkIAEJpCSg/klJc5lhJTf4LTTLFLSpmo+AZX4+toYsgUMhYDuST9KyzsfamCQggeUTsE0sJ6Nc7DX4y8nYmCUgAQkUJ5BL2RTP6MIToBzyCUjW+VgbkwSmELBuTqGVzq/c07GcGlIu9skN/qkZ1b8EJCABCZQjkEvZlMthHTErhzrkZColIIH5CNgOzsd2KGS5D9FZxzMN/nXI0VxIQAISkEDFBOxwVSw8ky4BCUigYgLqn4qFNzLpGvwjQelNAn0EbCj7yHhfAhIYS8B2ZCwp/UlAAhKQQEoC6p+UNJcZVnKD30KzTEGbqvkIWObnY2vIEjgUArYj+SQt63ysjUkCElg+AdvEcjLKxV6Dv5yMjVkCEpBAcQK5lE3xjC48Acohn4BknY+1MUlgCgHr5hRa6fzKPR3LqSHlYp/c4J+aUf1LQAISkEA5ArmUTbkc1hGzcqhDTqZSAhKYj4Dt4Hxsh0KW+xCddTzT4F+HHM2FBCQgAQlUTMAOV8XCM+kSkIAEKiag/qlYeCOTrsE/EpTeJNBHwIayj4z3JSCBsQRsR8aS0p8EJCABCaQkoP5JSXOZYSU3+C00yxS0qZqPgGV+PraGLIFDIWA7kk/Sss7H2pgkIIHlE7BNLCejXOw1+MvJ2JglIAEJFCeQS9kUz+jCE6Ac8glI1vlYG5MEphCwbk6hlc6v3NOxnBpSLvbJDf6pGdW/BCQgAQmUI5BL2ZTLYR0xK4c65GQqJSCB+QjYDs7HdihkuQ/RWcczDf51yNFcSEACEpBAxQROO+20hkMnAQlIQAISyElA/ZOTdpm4NPibpvnzn//sUYBBmSKfPlZHRtMzNUQJ7Eqg1vb8hhtuaDhqTf+u8vI9CUhAAmshUGv7rf5ZSwnsz0dyg78m44eK+W//9m/Ni1/84ubpT396O7sSRrk8/2W2aQ4Oz3jGM5pzzz23ueyyy9rObX/xrONJTWW+DqKmUgLTCdiez9dmD+mBGttz2+zp9cs3JCCBfgLqH/VPf+kYfpJLHx20wX/++edr5P91GelQh27OZxdccMFwTfCpBCQwK4FcymbWTDRNY3tepsMV64da2vO1lPm565ThSyA3gVrrpvpH/bNrXclV5pMb/LtmOPd7zC4D+f/8n//T3Hvvvc0TTzxR7VLK2pYQnThxovnqV7/askcGrLLQSUACZQjkUjZz5s72vNy2NNvzOUu2YUvgsAjUqI/UP+qfGmrpwRr8LCmnYbnvvvtqkNMq08hACzJgS4VOAhKQwK4EbM93JZfuPdvzdCwNSQISqIeA+qe8rNQ/22VwsAY/+w4xNp988sntlPQxCwFWVSCD008/fZbwcwVKHjh0EpBAGQK252W4x7GupT2P8+T/EpCABLYRUP9sIzT/c/XPdsbJDf5ajJ9a0rldhPX6YCvCGuSwhjzUW4pMuQSaVbQjtcuxpvbcNrv20mb6JbAcArYn5WVRk/7p0spVfjT4u+S9zkag5gqaDZIRSWBmArmUzZzZWEMe5uSTI+ya2nPLS44SYRwSmE6gxrpZY5qnS2bZb9Skf7okc5Wf5AZ/NyNLvc4FeKn5X0K6aq6gS+BnGiSQgsAa2sI15CGFLEuGYXtekr5xS2AdBGpsy2tM8zpKy8lcqH9Osuj7T4O/j4z3ZydgBZ0dsRFI4CAI2OEqL2bb8/IyMAUSkEB+Auqf/My7Map/ukROvdbgP5WJdzIRWEsFtbHPVGCMRgI9BKyDPWAy3l5Le54RmVFJQAIrIKD+KS9E9c92GSQ3+Gsp+LWkc7sI6/WxlgpqWaq3DJrydRCwDpaXY03tueWlfHkxBRJYCwHbk/KSrEn/dGnlKj8a/F3yXmcjUHMFzQap8oh++9vfNvfcc09z5ZVXNh/84Aeb733ve9lz9OCDDzZXX311c/PNNzcnTpzIHv/SI8ylbObksIY8zMknR9g1teeWlxwlYloc6Iabbrqpufzyy5u77767eeqpp6YFkMj3H//4x+ajH/1o8/jjjycK0WCmEKixbtaY5ikyqcFvTfqnyzNX+Ulu8HczstTrXICXmv8lpKvmCroEfktPw49//OPm9NNPb170ohc1b3vb25pXvvKV7c+nXXTRRUdJ/+QnP9m88Y1vPLpO/Q9hk4a3vOUtzbnnntvG/4UvfCF1NFWHt4a2cA15qLoQNU1je167BMulnwHZpz3taQ264dJLL23OOOOMtq1+6KGHjhL1vOc9r3nkkUeOruf65x3veEcb91133TVXFIY7QKDGtrzGNA+IoMpH6p/tYtPg385IHzMRsILOBHYhwb71rW9tzjzzzOZPf/rTUYo+//nPt50pZt1x1157bfPqV7/66HnKfxhwQBE/9thjR8G+6lWvai644IKja/9ZBwE7XOXlaHteXgY1puDJJ59s2+k77rjjWPJf+MIXNueff/7RPer43AY/+umZz3xmO/igwX+E3n+2EFD/bAGU4bH6ZztkDf7tjPQxE4G1VFAb+80F5O1vf3tDp41l/bF7//vf33z3u99tO3PMvjOzw+zNvffe23q75ZZbjmZ4WB3wrW99q73/zW9+s33nuuuua2ftefeSSy5pfve738XBH/3/ne98p/nEJz5xdM0/zPi/+c1vPnbPi/oJWAfLy3At7Xl5koeVgl/+8petwf/pT3/6WMZp92+44YZ2Sxj6gTrOzD+DtrgHHnigOeuss9r7z3nOc5pbb721vc+SfPxzzYAz77G6iwHgIfejH/2o1Stf//rXG8LT4B+i5bOYgPonplHmf/XPdu7JDf5aCn4t6dwuwnp9rKWCWpY2l8Ef/vCHbQcNw5x9mV/72teOzfb/z//8T2uwv+xlL2swzn/1q181d955Z9tBu+2229qZ+Xe/+93t9c9+9rN2QADWzPr89Kc/bb8HQMfuXe961+YE/PUuHcCPf/zjzcUXX9wOLjDYoFsXAetgeXnW1J5bXsqXlzgF73nPe9p2Hl3A/nlm/YP79a9/3bC0H5l99rOfbdv9sHrrqquuavUEW8N4znYt2nv+f9azntUOLPPdlte//vXNOeecE4I85fyHP/yhHTz4wAc+0D7T4D8FkTcGCNieDMDJ9Kgm/dNFkqv8aPB3yU+4/shHPtIqFF5hqRkfnBlyv//975uxx6ZwiIMPn6HQcIxAh1HtTf7je91ZUAyreKlz7Hfof5bdXX/99UNeRj+ruYKOzuSBe6Ss8tE+ZtUx/Dn+8z//84hKd0n/S17ykmMz8JQRZnVuvPHGI4OfwYHgmMHH6B9y1Dlm9unEMeOjwX+cVi5lczzWtFdryENaIvlDq6k9t7zkLx/bYmSGnf4NhjnyecUrXnFsVp57YUk/egO9QJkLDh1z4YUXHhn8H/7wh8OjhrB5n4HjTY4BaQaSQ3ga/Jso5blXY92sMc15pJkvlpr0T5dKrvKT3ODvZmSp1ykAs9crGNycue5zP//5z1uFE+Lddo5HuEOYLEtjCRtL4DiIk3CYSQ33OG/6uu0//dM/NZdddlkIqvmHf/iHhqXTU92Xv/zlNk4U6L4uRQXdZdBi33T7/jgC//3f/92Wy+CbvfwMGFFmP/OZz7S3uwY/szI8Z5l/OLhmJocl//wfOmUEwJedudfXkQtxhzOz/Awq6E4SgB9Hza7WPFBuWemyqc2uTR4p2nPybJtem+T3Sy99o0cfffRYIKzg4iOvGN7BUceDwc8ALtdBR3Dm+uyzzz4y+L/97W+HV9szg81B78QP2LfP+w8//HC7coy4GUygfzRWr8Th+f9+BGpsy2tKM1ssqW/YCmtyqfTPmph086LB3yXSc01hwriIDxRIbPBzHT/n/zAbj/JhuVl8hGVonOP7/B/PYpKkr371q61CCw3L0JmPpcXuiSeeaN+N98iNMfiZVR2Kp/uMr+tOcbtWUJQ++7jD/r0pceo3HwE6X3TMuo6ZG76aj+sa/OzZZ7Yldt/4xjfan0gKBj/1KrjPfe5zvQNthEMZiR0/zUc91a2LQGiLaskVq8MYIA7p5syAbjBoQj4YCGDPMs+X7nZtz8mXbfrSpTtf+sIkwve///1jkbCHn3IfJj/4P9QPvur/ghe84Jh/9ALvhCX9bA0ILky4dOPgOcv40QnxQVwMAjg4HAh6HiJAeeFYsuPbFOGbFiG9XDPg1XXve9/72vzQ94pd3/3YT6n/99E/pdKcO14N/pHEmUUPlSQ+xwZ/fD/8/5Of/KSNgdFqFAofMQtH+BAN53CPM/7wHxwKj85hPNrNs7Cvbdvs0Mc+9rE27ShIFBgH6SO8cB3OcQUnXgYqOOh0skogXHNG6ZKucG/bR3FCfsJ5SgXlq+7XXHNN8/znP/8UOYTwSp2DrEvFv9R4+eASbG6//fbmF7/4RTuiHGb42YuJC0s4w5YTrin/fJCJ8sHgF2Ew6xcMfvZj0oGjg/fiF7+46Q5wBR7BP8v+2aNJfaGuMcigWxeBmuogA1Gkl3LLhyjRLZ/61KfatpSyT9nGUW6Zaawlb1Pac/K35DZ9XbVj2blhxpF+BEvqaaMx2JltZ2CY9jr8ygv1AH3AdRgMYLIE/+gH6k64xi/voiOoT+EXY8aScEn/WFL6g8DS22j6W6SRfj4DbPTVmURkgoX7fF8JR/8/2Adj7i9J+lP1z5LSnistyQ3+pRf8AHZqOlEqLFGODxRMbPD/7d8+7dhz/PIeDgMeQwPjm71lHHT2SAfGTbhHePgLBj/7jzG0Q3q3nUlT7KgEVGpm9F/zmtccHYTD4EJ8j/9J0yaHIu2G/brXva796Nom/2Pubaug999/f3PllVeeMirZZTAmrjn9hPTMGUeNYSNfPsbEQFNgxIx7+DASeWI5c1jGz+wN9YUv7+OfGRbepezhMOC5x9f/OeOH8MKg2iZGfC8gHtWmXq1tKdumfB/avVC+lp5vDBnSyscouy7MdLJ6CYc+YYXMe9/73vadrv+lXW9rz0nvUtr0WsrL0mQ8V3ow9Ol/hHadvsZrX/va1mAPcb7jHe9o6wH+cMzgI0feYcCACQHKIDok1LE4vGDUhPCGzhr8Q3R81iWw5PYEG4L6wQcxmfiIHYNh6BmMfFyY2AsDBKHO9N2Pwyr9/xj9UzqNffHnKj8a/H0SGHGfShQb/Fz3OSoMHTdmMPnoHcd9993XKiZG1cK9D33oQ60//OMIPygzjHZmRcLBrBAFhffDve5WAD4kiB/iit2YJf18HZdZWo4rrriiDYfBiHCPhgKjP1xP/SbApgpKOpkBe/azn93GFyrC0DnOl/8vkwCKZYqhzaxPd8UIBn8YdKJsslVlrCMsfgVAdyqBULdOfVLPnVry8KY3valtz8OKli5hjJk3vOEN7e3QlgfDput3adeb2nPSuMQ2/bTTTms4dMsiwOz9D37wg2PfaRlKIcb9448/fsx/MPgZQMbAmRLeUFw+y0OglrY8prHkNDNhQvr6PlaMTcJqGOoNOod2nJUxvBMM/r77MYPS//fpn9LpGhN/Ln2U3OAfk7kl+NmlgjILjzEaDsKIDX6uwzPO8dfIQ56ZsWSZJgdLk3mH5WbhHs9jh6HCLCjLO/GLkR0Orrv3gkFEGGEbAl+u7boxBj+KlPCZRX3pS1+69Xj1q1/djWbwOlRQCjuzumGmN+TL81/k28dhEO4KH8YG/wqzdyxLfTL3/ql14hnPeEbbTsFm6Y62dNN3LYbSXaPBz2oF2/RTy2qK+jtUVnzWHM3wh/3+MjmVQIpyaBin1u9TSZe/wypZ+vtTXNfgD+/23Q/PS56DPVFDP6AUJw3+CeRZnkxnLRwUrK7BH55xxv8mx94ZOn4Y+e9///uPltv0jcARRtjPySxpOMIKAb4qG+4x8xkcM/+M3LF/mhnT+KABYPY/vsf/sQsGPwMHc7i4gtI5JE0qkVOVSB+TOWSy5DAZ+OK7EYfg+mTu/VPrR00GP4O1Ycl+KMf8AgWDvuH493//9/CoPddo8H/pS19qDX7b9FPL6751+Fjh8OIUAqwSYMJlygqwUwJZ+Y19y6Dvb67XSyw2rBYOS/ZD+liNG/RNOMerzvoM+777IdyS59ieKJmOJcetwb+HdKYs6WdZGUv62U9Mp499zCzdxIDBWGcUjkaU/fasJOguZw4z/GMaWuIIjiVtdL7GvIefuNLzRVvu5TD4Q3oZxODnAxkMGZvm8G6pc0hnqfiNVwKHTqCWOsjeYIyR2NHehYFi2u64/cZfjQZ/nL8ltun8fDsdRJ0EJCCBfQksWf/wi0hM/MWOX4kJOofVu6Q/fCwWf32Gfd/9OOxS/9ds8OfSR8kN/iUX/LggTk3niRMnjvbJh/3yLJ+PZ/i5Ds/Cmdn18DEmPr5H5eNLs+yN+fjHP95WtAsuuKC95kMZdAbDR87iD+hhuIdZ/G3n7kw911TU+GCwgv348T3+jztBrBCAUze8mOM+/2+roMTPtwOe+9znDhr/+6Qhxbu59t+kSKthSGCNBKa256UY0NazuqvP8UHKtRn8cV6X0qbXUl5idv4vAQksk8CS2xO+sUX6sEU2OX6Wj+ca/Jvo5LmXq/xo8I+UJ7PuQSjxOTb44/vh/09/+tNtDGGWnI8yxT/BF/5n1p93+IAGLvgPySOcEObQmRmkMY6llts+sseqgvibAGPCneJnm8Efh8VP//EV3v/7f//vKRxif4f2PwzZqxgf8ZdY3/Wud238IjhbPyhr4SePWIHSHfwJ1wx24Tjjb8wRp6ErE5aQ8csUczqWc/KzTjfeeOMs0dx2223NzTff3Ib9zne+s/mv//qvwXj46UxmOvuO8HGcwUBmehjak5mCzxJsLXn44he/2LZfn/nMZzZyWbvBH2e6ZJte+yAt7TZbA8ccm357PsiBXxLi5/CmOPQwfYNtjp/KC+0akwb0ffgw2FhHXWBSYqojDuLGkEHHMckSb3X80Y9+1A66dZf8s60w9OemxrnJ/7aJmfA8rKosKdNN6S91r5a2POaz5DTz89rYF/S7NjkN/k1U8t7LpY+SG/x5Me0eW4oKOmVJf5zSu+66q1WYjLjRyDOYQIVkJK7PoWCJj4GAvoP3MeTHuDEGP7Pr//zP/zwmuJ38TDH44wj4aSs6Av/v//2/tvMcPzu0/xmVDcuAOVOuw0gtv1XMgE1YeRKz+dnPftYu82J/F8Y5v2cf/MY/ZcQ9tpvgmJ3kWXhOXOG6e+5+MInOVRhcYAULSoZ0fuUrX4mTdfT/b37zm9aIjr+sTweJ5c2sguEXKkJ4Ry/99R/eJY6Q3jDo1vXHNzPOPvvsrceb3/zmY68SLx+YZMCMjiR5Z9vMkAu/G026ukeQ29D7cz5L0RbOmb4xYdeUh/CxVn5mjIEvBtL4WTKME+pbd/ll7Uv6x8jPNn0MpZN+MBIp87QlrBjpOyhPfCMidu973/uODHZ+JhE/lMNwxG03g7usRIwPft6LNiu+x/933313HE1rYFDWcfR1SC8/EdbnMLb50HE4eJe0hetwJs3B0a6Sd9JD/4i2mHe4h25DV1CvwgQKfY6whDl8KJkzgwukL7xPGBxhayXfM/rc5z43eLByM3aEFdqloTPpw+WSaZzGJf4fWC0xbX1pWnqamZwgjQzu8fFjfsqYCR2+4M+kI89Cv5E88ox7YcAu5Lvvfnhe8ryrPVEyzbnj1uDfg/iuBn/4UB8VKnzUqFuxusnC4GdQAKXad6C0YoMfQ65vBgBlhv9NzzFiMJqILyijbnpSXKeooIzkl3a59t/05ZOfTKH8IDfKFI5ZDr4Hcfvttzd33HFH+393doUGnsaeAafYER7lY8gxW8Nv2geH4c6MXZ+jY0qHDcf/GPwY3KQ37sDx/Otf/3pr9PAsyJcZIjpxpJdyi8Edfr4sjpMyT4eUtJFflBsdL2bWu44BBLbbxAedP34jPb4Xb60hjDvvvLPlQ+c1/OwlcXSPeESdjilp3uTojAa5bXruve0E4FcTQ8oN+iOkmzN1jv383ZnH0FnbTqGsjxTtOTkIdb5sbpYdezAOt223Y9C+a/BffPHFRx8Upu2l7GEwhyP+tR10B+VtcPIGAAAgAElEQVQS43noQNfEA1WUBd7DaEcHhTKMgcF1OPjgcHCklcFV2nnaSv4PB2lkAJdr2t/gGGgl3bSvGOVDAwq8w0os2mn8n3feeQ15xain3WclAANPxEW/CP0QBpUx9vnw2dBBeEOOdJO3PpdLpn3xe393ApQZjiU7+kDU0ZBWzvTxqVcMOMeONpjnXbuk7378bqn/U+mfUunPEa8G/x6UdzX4iRJFwogwSpSKRViMkvc5DH78UWH7DsKIDX4MOt6Zetxzzz3t0jYag20dir70jrm/lgoa+I7J8xx+WGLJigeWZ7Klg7J10UUXNeeee+5RdCxvp2HvLrVHvqFTQ4cDmWwz+FlJQmcuLPUnEj4Cwz1mhLoOAx5GYQ9ZMPjxxxfJ6dyFJZcoGDpk5Id3QucfAwl/oTwGxRMb4wwghBmv4I84qFeExQcyyeOQo0PGCpw+RzrpHLJVgjhIE4Ni3CMefkkgHLHhpsHfRzTN/dJ1cNdcYFRQb0P53zWcJbxXU3teepB2X3kF45DZeNr8TQcG9BiDnzasz2Hwd7/wvckvA6SxwY/BTJ0MBvI555zTXrOSLNzjTLvYdYSFER8cBjk6YVPbjcHPIDBt8baD8kmfiHaavhcrZ9CJ/M9KALbZ8P+b3vSm5vrrr98YX0jTLmcGvOnv9blcMu2L3/u7E6hJ/1DOGNiK+2+753w5b9akf7rUcumj5AZ/LQU/RToxfMJP6WEkDS3J7wo4vmaPDUZDdzQt9sPsKV/5H3J8KJDleikcs6ObZkVThB3CqLmChjxwzrX/Jo4z/v+1r31tuzSLWXOMfGZwMEC7M850CpmZp6yyrJEj3iOJwc4sSZ/BT5mgY0S4rDKhvLK0nhUrzExynzhiY5vBBDp2pCm42ODnOZ3BMFvPoAAHhhB1NBj8zNpfeumlIYj2zHJ8Zq9IVxggYAYoGE9h+RqeSStMSN/Q9wO2Gfyve93r2nQxwMEMPmmnHNNBZTVBn9Pg7yOT5n6K9jxNSg43lJra89rLSzAOMWBpWzYd7N2PDX4G8ulDYCDTnvI/7TLtNv93D9px2k3CYBUY+mHTQbuKzghtPN8r4V68OnDMkn5mwFldRXzIhwFarjGSGZTgfw4M9eCm/AIRug3H5AkD4OFgdQLxhWvOXLPseVeHfPhWQHywguBf//Vfj93jeRgYziXTXfPke/0Eam9P+nNWz5Oa9E+Xaq7yo8HfJe91NgI1V9BskEZEhJHKTDczCBi87Fln9JZtGcyuc6bzxuwFz9gXH2Y14hkHOn7B4KcBYu8+RzCQMWhDw0QHjI4jnSM6Mhj9zJBg3NOpCY5OG53E0KnhfmzwswSTGXHijvfadw1+OpDM8seOmRgMcGa5SA8fRItdHA/3YcDABO/1uSGDn/yTF4z70CkN+125Rxri1TdwD44OOexg1T3Cnu7gN/c5yDR3vCnjW0MeUvIoEVZN7XnpQdp95ROMQ9o0fvkgtNXhfN1117VRxAY/7TMDtvHBT3NRd+J74X/CDo5BVAYQNh3dVV1ve9vb2u+ihJVjhDHG4GfQF/2Bzhg6Yj3AIAGDrsS17Qh5IV8sYQ5H2LYQrjnDZB+Dny1u3cGR0Eah6+JnrHrA5ZZp4LG0c+C0tHQNpafGNA/lp8ZnNemfLt9c+ii5wd/NyFKvraDlJVNzBS1P72QK6EBg3LKlg44Esx4YrnTSKOfMAjGTwP/xkn72Uw4Z/P/xH//RcIRVLHSo6JTEjtUF8UoQ9mTSAcUx884sfHfmOzbE6XAyM8RX7+nkBdc1+MlXPCCAP2b3w77JuHMZwojjCfe2nYcMflbiYLizDJQZ/ng7AQY/Ay7hw1ec4zTxHnJi1qt7sCUD2ZRyuZTNnPmzPZ+T7riwbc/HcUrhKzYOMYAZfGUWnoPtRrQ1uNjgD/HSjuGfD3Cxgir45Tl64kMf+lDw2rbl3Zn/oWteZL874bJPn9l4Dto86ihpDfc4oyOCw+D/wAc+EC5HnckvA8wY8fyscd8R6y30HnmGAQeDyaQtXIczH7ZN5dDBIY54VV0cfi6ZxnEu8f8a9ZH6p3xJUv9sl4EG/3ZG+piJwFoqaK79N31iYDllOJgtYGk/hiuGP0v8mdnBWGY2PnZDBj8GdtexVJMZlfhgVhtDPb4XBgi674dr0shsPNsBiCf+cFPw0zX4Md7paMaOwQpWNPS51AZ/iCcY/OGas0v6Yxr5/7fDlZ95N8a1tOfdfC3xumschi1RpBWjPRjxXYOfdpVVSPhHXl2Dn4+dsu0rOAZzCYMjfMmeQVquabtpC8NzzrFjpQCrlzgIkzrKiqxwj3P8kT38YMBPccTBMv9HH320DZ8B4O5BvDAJjnfIA0Y4B3lEj4XrcI5XOIR3dz0z4MFKhMA7bC+Iw8sl0zhO/09DQP2ThuM+oah/ttPT4N/OSB8zEVhLBS3Z2LNsnOX5dLYwvDHwMfQxjtljTkeDGXT2v8czN4g0GPx0Quh40UkMS/o3GfxsE6BDGB9hpiS+97GPfWxriQkzPvHqgPilrsFP55APEcaO/fhD383IbfATH0tSwxEPZDDDT6dyk/Mr/ZuoTLtXsg5OS+l6fdfUnpcepN23FHSNQwZzWXHEwUdHNxn8GLDsV8cgDjPrwQAlPcy4817fx7xYtUQ9C1uVWL019IHTOI9jlvQzs979ab84jE3/o3f4CB8G/yadxTukOTb4GXSgLeYI7QbncC/cZ3tECscAOFxZ+YBDV3cH37lfQqYp8mcYfyljlCFdOQI16Z8upVz6KLnBHxrQboaWdl1LOpfGLWV6aq6gMYeSS9Do7NDxYpkgew+ZRWBJPV9hZakiBjyGPZ0YvgYeO+4zM01HiWd0SoYM/vjd8P9Uo5o08jE94gwdoBBWfO4a/Hw8ijrL3kiWymPocz207HJq2oh/aEl/SF/fDD+DLHwYKxysiAhOgz+QmOdsez4P1ymh1tSe115eYuOQ1VWsmooPDGEcxmX4WT5mrhk05d3gaGdvvPHGo4+x0nb1OWbGMcqD6xr86J7we/fBTzhvM/hp09E/GO5jHflBjnxHZYrBH8Jn7z5xvvOd72z1Y7jP+ZJLLjn6oC0DIAyMjD3CYArh8AsDbLVj21ZwbLVDH7PKINYRJWQa0uR5PwK1tyf75X4Zb9ekf7rEcpWf5AZ/SeOnC3HoOhfgoTQc+rOaK+gSZccsBoY0H+rjFxswkjnTIaS88z8fyAuOjg73+W3isMccvwwi0BHiHgczFMgq/m368D+DCgw2hOtwjuNhpjt8GZn4+HBe+JJ+SEv3zIcF8ctHooJjjzz3OMgnP/005IYMfjqL8dLS8D/5puMcrsOZ2a/g+gz+7rcKgn/OcCTdpKl7sFKBZ6VcYFoq/hTxriEPKTiUDKOm9ryWfkqfPGPjsM8P99nyFAz+rj/0BYOUtOEc4QOkXX+0xeE7I/GKLAz8sGos/l4M7f39999/7Ahf0+f97jMMZLadYRjHxnI3Hd1r4qatxoUl/eiZ7kHbEGb44YZ+Y2CX+EgX2+EwwImbbwwQLvqFAXFc+CUDdMOYI6zsuvXWW1v/vE/diB0D1awEY8A9DHLklGmclqX9X2NbXmOalyb3fdNTk/7p5jWXPkpu8HczstRrK2h5ydRcQcvTO54COl+UaZZs0mnBiNx0xHs92QoQjPrQ6dt05iec6IwQ9tiDQQRc+Bk7jFw+JtXXqTyem/4rOmV8Fbrbgdr0xpDBz/JWth6MPeKO7q4GP51IBmG6B51dZFfK5VI2c+bP9nxOuuPCtj0fxymFr23GIdu7aP+oFxi4wTFzjZGJ4cozfpqVmW7C2+TCSioMZH4aOHbhp1BDWBiwuJtvvvloEGGTPuneYxacNhW9NcVdeOGF7UAB7wSDn3C6B/kMBj/fssHQ5+OAYY9+MPgJh1UM/IoLbfIYHdOXXgZZaO8ZQO9z6DJWYMCPVQS5ZNqXnqXcr1EfqX/Klx71z3YZaPBvZ6SPmQispYLm2n8zJAZmrPn68tIcSzz3+XmjffLD1oahJf+7hs0gCZ3U2DEggAz6HPteeW+T4/sJzHrpdidgh2t3dqneXEt7norHnOGwBJ7Z6T6jlHaXgcXuNi6Mdtoqlqf3Gflxuvk51aFBWto8/PTt+4/DGvqfcMakJw6D7QhhRQDGe9+KL7YpxGHHv55CeKxOiAd04zh2/R8eQ/ogDjfwzSXTOG7/T0NA/ZOG4z6hqH+209Pg385IHzMRWEsFtbGfqYAYrARGErAOjgQ1o7ea2vMlDNLOKAqDloAEMhJQ/2SE3RNVTfqnm4Vc+ii5wV9Lwa8lnd2CsabrmitoLIcal6DF6ff/wyZAPexsMa0OiO15eZHV1J5bXsqXF1MggU0EatRHtiebJJn3Xk36p0smV/lJbvDXYvyQTiDryhEIFRRZ6CQggTIEcimbOXNnez4n3XFh19Se19JPGUdeXxJYD4Ea9ZH6p3z5q0n/dGnl0kfJDf5uRpZ6zYdbaFiWuO95qcxSp4u9f8jg6U9/euqgDU8CEhhJIJeyGZmcnbzZnu+ELelLtudJcRqYBA6SQI36SP1Tvqiqf7bL4GAN/nPPPbc1NlN/rGU7cn0EAvyMGQZ/+LpvuF/bOdf+m9q4mF4J5CJge56LdH88a2nP+3PoEwlIQAKnElD/nMok9x31z3biyQ1+llXUsB+Un19hJJGfLuPrrk88caJN91+Mt8b//zwfgxMnnmy/igt7ZHDppZduL6kL9lHjErQF4zRpEphMwPZ8vvZ6m06ssT13kHZyFfMFCUigh4D6R/3TUzRG3c6lj5Ib/DUZP/xea1g+xDmk3fPfzMoiZv4v//IvoyrEkj2F/Cw5jaZNAn0Eahmk7Ut/uG97Pm+73acXQ/vHuZb2POQllB3PEpDAMgjUqo/UP+qfXWtQLn2U3OAPyn/XjOd+j9lllpSzjzyk3fNps7Jgv9PLX/7yhlFRnQQkUJZALmWTI5e25/O23Zt0Y43techHjjJpHBKQwHgCNesj9Y/6Z3xJP+kzlz5KbvCfzIL/SUACEpDA0gnkUjZL51A6fZdccknDoZOABCRwqATUR2Ukr/4pwz1nrBr8OWkb1yoJ5Np/s0p4ZkoCEmgJ/N3f/V3z93//99KQgAQkIAEJZCWg/smKu0hkyQ3+WvffFKFvpKsgUPMStFUIwExIoHICfDg2tCP+csz8wnSQdn7GxiABCdRBQP1TVk659FFygz90WsriM3YJ5CPgErR8rI0pPQEHadMznRriZZdddmTw+22TqfSm+7efMp2Zb0ggBwH1UQ7Kx+NQ/xznkfsqlz5KbvBr/OQuKsYnAQlIYHcCuZTN7ilc/5tnnHHGkcH/7Gc/e/0ZLpxD+ymFBWD0EughoD7qATPjbfXPjHBHBJ1LHyU3+EfkTS8SkIAEJLAQArmUzUKyu7hk3H///UfGfujsPvDAA4tLpwmSgAQkMDcB9dHchI+Hr/45zmPNVxr8a5auectCINf+myyZMRIJSCArgSuuuOIUg//KK6/MmgYjk4AEJCCBwyOg/jkcmSc3+N1/cziFx5z+hUCYlZOHBCQggakEnvvc555i8J955plTg9H/BAIO0k6ApVcJSGC1BNQ/5UWbSx8lN/g1fsoXHlOQl4BL0PLyNra0BBykTctzSmgPPvjgKcZ+0KEPPfTQlKD0O4FAYDzhFb1KQAIZCKiPMkD+axTqn3ysh2LKpY+SG/waP0Ni9ZkEJCCBZRHIpWyWletlpObqq6/uNfivueaaZSRyhamwn7JCoZqlVRBQH+UTo/onH+uhmHLpo+QG/1CmfCYBCUhAAssikEvZLCvXy0jN85///F6Dn2c6CUhAAodEQH2UT9rqn3yslxCTBv8SpGAaqiaQa/9N1ZBMvAQkcIzAww8/3Gvsh1muRx555Ng7XkhAAhKQgAT2JaD+2Zdgfe8nN/jdf1NfITDF+xEInfP9QvFtCUjgkAhce+21Ww3+66677pCQZMurg7TZUBuRBCSwQALqn+UIJZc+Sm7wa/wspxCZkjwEXIKWh7OxzEPAQdp5uG4L9ayzztpq8P/jP/7jtmB8vgMB+yk7QPMVCWQgoD7KALlpGvVPHs5jYsmlj5Ib/Bo/Y8SrHwlIQALLIJBL2Swjt8tIxWOPPdYEXRnOQQ7hOpzxq0tLILBNG6qhSUAC+xII7eC+4fh+PwH1Tz+bEk9y6aPkBn8JWMYpAQlIQAK7EcilbHZL3Trf+sss1p+b+Bw6uvG98P86KZgrCUhAAscJqI+O85jjKuiV+Kz+mYP0ssLU4F+WPExNhQRy7b+pEI1JloAERhIIHa6R3vUmAQlIQAISSEJA/ZME46IDSW7w/2XEaNF5NnESSErAhjIpTgOTwEESsB3JJ3YHafOxNiYJSGD5BNQ/5WSUSx8lN/gtNOUKjTGXIeAStDLcjTUNAQdp03DcNxR1574Ex78v6/Gs9CmBnATURzlpn4zLNvEki9z/5WKf3ODX+MldVIxPAhKQwO4Ecimb3VN4GG8qh3xytp+Sj7UxSWAKAdvBKbTS+ZV7OpZTQ8qlj5Ib/FMzqn8JSEACEihHIJeyKZfDOmK2w1WHnEylBCQwHwH10Xxsh0JW/wzRWcczDf51yNFcFCSQa/9NwSwatQQkMDMBO1wzAzZ4CUhAAhLYSED9sxHLqm4mN/jdf7Oq8mFmRhCwoRwBSS8SkMAgAduRQTxJHzpImxSngUlAApUTUP+UE2AufZTc4LfQlCs0xlyGgEvQynA31jQEHKRNw3HfUNSd+xIc/76sx7PSpwRyElAf5aR9Mi7bxJMscv+Xi31yg1/jJ3dRMT4JSEACuxPIpWx2T+FhvKkc8snZfko+1sYkgSkEbAen0ErnV+7pWE4NKZc+Sm7wT82o/iUgAQlIoByBXMqmXA7riNkOVx1yMpUSkMB8BNRH87EdCln9M0RnHc80+NchR3NRkECu/TcFs2jUEpDAzATscM0M2OAlIAEJSGAjAfXPRiyrupnc4Hf/zarKh5kZQcCGcgQkvUhAAoMEbEcG8SR96CBtUpwGJgEJVE5A/VNOgLn0UXKD30JTrtAYcxkCLkErw91Y0xBwkDYNx31DUXfuS3D8+7Iez0qfEshJQH2Uk/bJuGwTT7LI/V8u9skNfo2f3EXF+CQgAQnsTiCXstk9hYfxpnLIJ2f7KflYG5MEphCwHZxCK51fuadjOTWkXPooucE/NaP6l4AEJCCBcgRyKZtyOawjZjtcdcjJVEpAAvMRUB/Nx3YoZPXPEJ11PNPgX4cczUVBArn23xTMolFLQAIzE7DDNTNgg5eABCQggY0E1D8bsazqZnKD3/03qyofZmYEARvKEZD0IgEJDBKwHRnEk/Shg7RJcRqYBCRQOQH1TzkB5tJHyQ1+C025QmPMZQi4BK0Md2NNQ8BB2jQc9w1F3bkvwfHvy3o8K31KICcB9VFO2ifjsk08ySL3f7nYJzf4NX5yFxXjk4AEJLA7gVzKZvcUHsabyiGfnO2n5GNtTBKYQsB2cAqtdH7lno7l1JBy6aPkBv/UjOpfAhKQgATKEcilbMrlsI6Y7XDVISdTKQEJzEdAfTQf26GQ1T9DdNbxTIN/HXI0FwUJ5Np/UzCLRi0BCcxMwA7XzIANXgISkIAENhJQ/2zEsqqbyQ1+99+sqnyYmREEbChHQNKLBCQwSMB2ZBBP0ocO0ibFaWASkEDlBNQ/5QSYSx8lN/gtNOUKjTGXIeAStDLcjTUNAQdp03DcNxR1574Ex78v6/Gs9CmBnATURzlpn4zLNvEki9z/5WKf3ODX+MldVIxPAhKQwO4Ecimb3VN4GG8qh3xytp+Sj7UxSWAKAdvBKbTS+ZV7OpZTQ8qlj5Ib/FMzqn8JSEACEihHIJeyKZfDOmK2w1WHnEylBCQwHwH10Xxsh0JW/wzRWcczDf51yNFcFCSQa/9NwSwatQQkMDMBO1wzAzZ4CUhAAhLYSED9sxHLqm4mN/jdf7Oq8mFmRhCwoRwBSS8SkMAgAduRQTxJHzpImxSngUlAApUTUP+UE2AufZTc4LfQlCs0xlyGgEvQynA31jQEHKRNw3HfUNSd+xIc/76sx7PSpwRyElAf5aR9Mi7bxJMscv+Xi31yg1/jJ3dRMT4JSEACuxPIpWx2T+FhvKkc8snZfko+1sYkgSkEbAen0ErnV+7pWE4NKZc+Sm7wT82o/iUgAQlIoByBXMqmXA7riNkOVx1yMpUSkMB8BNRH87EdCln9M0RnHc80+NchR3NRkECu/TcFs2jUEpDAzATscM0M2OAlIAEJSGAjAfXPRiyrupnc4Hf/zarKh5kZQcCGcgQkvUhAAoMEbEcG8SR96CBtUpwGJgEJVE5A/VNOgLn0UXKD30JTrtAYcxkCLkErw91Y0xBwkDYNx31DUXfuS3D8+7Iez0qfEshJQH2Uk/bJuGwTT7LI/V8u9skNfo2f3EXF+CQgAQnsTiCXstk9hYfxpnLIJ2f7KflYG5MEphCwHZxCK51fuadjOTWkXPooucE/NaP6l4AEJCCBcgRyKZtyOawjZjtcdcjJVEpAAvMRUB/Nx3YoZPXPEJ11PNPgX4cczUVBArn23xTMolFLQAIzE7DDNTNgg5eABCQggY0E1D8bsazqZnKD3/03qyofZmYEARvKEZD0IgEJDBKwHRnEk/Shg7RJcRqYBCRQOQH1TzkB5tJHyQ1+C025QmPMZQi4BK0Md2NNQ8BB2jQc9w1F3bkvwfHvy3o8K31KICcB9VFO2ifjsk08ySL3f7nYJzf4NX5yFxXjk4AEJLA7gVzKZvcUHsabyiGfnO2n5GNtTBKYQsB2cAqtdH7lno7l1JBy6aPkBv/UjOpfAhKQgATKEcilbMrlsI6Y7XDVISdTKQEJzEdAfTQf26GQ1T9DdNbxTIN/HXI0FwUJ5Np/UzCLRi0BCcxMwA7XzIANXgISkIAENhJQ/2zEsqqbyQ1+99+sqnyYmREEbChHQNKLBCQwSMB2ZBBP0ocO0ibFaWASkEDlBNQ/5QSYSx8lN/gtNOUKjTGXIeAStDLcjTUNAQdp03DcNxR1574Ex78v6/Gs9CmBnATURzlpn4zLNvEki9z/5WKf3ODX+MldVIxPAhKQwO4Ecimb3VN4GG8qh3xytp+Sj7UxSWAKAdvBKbTS+ZV7OpZTQ8qlj5Ib/FMzqn8JSEACEihHIJeyKZfDOmK2w1WHnEylBCQwHwH10Xxsh0JW/wzRWcczDf51yNFcFCSQa/9NwSwatQQkMDMBO1wzAzZ4CUhAAhLYSED9sxHLqm4mN/jdf7Oq8mFmRhCwoRwBSS8SkMAgAduRQTxJHzpImxSngUlAApUTUP+UE2AufZTc4LfQlCs0xlyGgEvQynA31jQEHKRNw3HfUNSd+xIc/76sx7PSpwRyElAf5aR9Mi7bxJMscv+Xi31yg1/jJ3dRMT4JSEACuxPIpWx2T+FhvKkc8snZfko+1sYkgSkEbAen0ErnV+7pWE4NKZc+Sm7wT82o/iUgAQlIoByBXMqmXA7riNkOVx1yMpUSkMB8BNRH87EdCln9M0RnHc80+NchR3NRkECu/TcFs2jUEpDAzATscM0M2OAlIAEJSGAjAfXPRiyrupnc4Hf/zarKh5kZQcCGcgQkvUhAAhJYCAEHaRciCJMhAQlI4MAJ5NJHyQ1+jZ8DL7kHmH2XoB2g0FeUZQdpVyRMszKKgP2UUZj0JIHsBNRH2ZEbYWECufRRcoNf46dwyTF6CUhAAhMI5FI2E5KkVwnMSsB+yqx4DVwCOxNQH+2MzhcrJZBLHyU3+CvlbbIlIAEJHCSBXMrmIOGaaQlIQAISGE1AfTQalR4lMImABv8kXHqWwKkEcu2/OTVm70hAAksicOLEieZTn/pUc9lllzW33XZb8+STT2ZNHsthb7/99uaRRx7JGq+RSUACEpBAOQLf+973mptuuqm5/PLLm7vvvrt56qmnsibmhz/8YfPe9763ueqqq5pvfetbWeM2snEEkhv87r8ZB15f6yHgErT1yNKcSGBXAl/4whca2oLzzjuvefvb39686EUvaq8/+tGPHgV56aWXNvH10YME/zz++OPNa17zmjbOW265JUGI6w3CQdr1ytac/f/2zvXZnqrOz5U/IHmbF6m8yotUKlVJlU5NldaYSWpwtJJoBge1xtEYy4hRI6KOMBKFAR0YDSigg4iKgow3vKCjeIERFIzKXUFARcEbKnITBUTUTj2953tOn/713qd7n7VXd6/9rKo+e+/u1evyrNXruz7r0kcC20bgnHPOqZ7whCdUJ554YoWNOfzww2s78O1vf3sHxbOe9ayNDQR/5zvfqeN/znOeU73pTW+qnvzkJ1eveMUrKvSgbn8CuexRcsGv+Nm/cPVRFgGXoJVVntuWGwdp05T4M5/5zOrUU0/dE9hZZ51Vd4R++9vf1udf8pKX1LMwezwl+oHtZWXBU57ylErBvxqq/ZTVfLwqgbEIaI+GkWcVGe3Z5z//+T03Pve5z62OOeaYnXP42dTKr2OPPbZ66UtfuhPXt771rTpNDATo9ieQyx4lF/yKn/0LVx8SkIAEpkIgl7GZSn43lQ5mN0477bQ9wf/85z+vzj333OrHP/5xxQwLrA877LD6+y9/+cvqnnvuqTtlzM4wK8LKgN/85jd1GCeffHI9OPDCF76wvo/wb7jhhj3hN3/86Ec/qn8Sj4K/SebQ7/ZTDmXiGQlMgYD2aFgp/OIXv6jtw2WXXbbnRpbVf/jDH66++tWv7tgeZv6PO+642t/NN99cPe95z6vvPeKII6qLL764Po/9wYbwm0FsyuPoo4+u7rrrrj3hN39gu9hOEI6tbdy3yl6FXz+rKpc9Si74LTwJSEACEpgPgVzGZj5E1kvpNddcU3dy6Cydd955FXsqwzHDf9ttt1XMurDHke+//vWvK0Q8szAsvbz22mvrjtbb3pp3TDAAACAASURBVPa2+rYQ+uzHfOCBB6qPfOQjdfgPP/xwBNv5qeDvxOJJCUhgBgS0R8ML6fzzz69tw1FHHVVvGWu+O+bBBx+s7QsC/Atf+EJtlxDv/MYW/fCHP6wuueSS+jfb0hD8XGOlGDP0iPeTTjqpwh71de94xzvqlW3ErZsOAQX/dMrClMyUQK79NzPFY7IlsDUE6OB89rOfrVjiSKcJ8d2c5Wgu6ec8fn7605/u8KHjxWw/jg4W4TQdnbArrriieeqQ7wr+Q5B4QgISkEDRBLAjH/zgB2u7gV1hD31zVp5zsaT/3e9+d73Pv7nH/g1veEP16le/ekfwX3jhhTu8CJv777///p1zXV8Y2OZ9Avi98soru7x4bkQCyQW/+29GLE2jHoUAjRuHTgIS2F4CzNLHcnwoMBPPTAdtQ4j6puD/zGc+U19D4MeBX76z3B/BTweu6U444YT6pUjNc+3vCv42kUN/O0h7KBPPSEAC8yPAtrHvfe97exJ+9913V6985SsrluqHw7aE4Ge7WNiapu058sgjdwT/N7/5zbi1/mQr2uWXX77nXPMH29Owb2wbuOWWW5qX/L4PgVz2KLngpxJx6CSwLQRcgrYtJV1mPh2kTVOu2D1EfNMxAECHKjpKTcF/9dVX17aSDls4ZlCuuuqq+ieCH4HfdOyp3G9/voK/Saz7u/2Ubi6elcDYBLRHw0ogtpLFO1zibvbw087F8n6+h+BnFp7tZE3HFjTuiSX9zf8mg43i/nYccT8DDKw+Y5CBwWrdMAK57FFywa/4GVbQ+paABCQwJoFcxmbMPOaIm+X3zG5cd9111SOPPFIvp2SPJHz5H8U4/mXf2WefXXeqHnroofoFfrxZn60A7NNnGeYpp5xS+0Xwcy97+9nvj9Dnd3TgluVJwb+MzO55+ym7LPwmgSkR0B4NKw1WkvHSvHgXDIL99ttvr20JtiD+Qwxc2aPP7xgMYAsZ/tnHzwx+/MYv9zIIgNjnX+0x2LzM8e9gWU3ws5/9rH4RLbP9HISt259ALnuUXPDvnzV9SEACEpDAVAjkMjZTye+m0oFgf+Mb31jPdESnlbcbf/nLX96JkpcmMeNP5wp300037fjn/Otf//odQY/g538q05mL8Hhx336OmZv9VgHsF4bXJSABCYxBQHs0nDrbyRDd2BBsBfbl+OOP3/PiWAaauYY/HDP4/OYebAzbz1hdETP8/HeZZnhf//rXlyYs/IWdik/38S9FNsoFBf8o2I20JAK59t+UxMy8SKBkAuzZZ1a+r8M/qwKaDsF/0UUX1Z0w/q3fo48+2rzsdwlIQAISkMAOAWbvsRUI9z4OcX/nnXfu8R+Cn+X/2Jwh4fWJUz/jEUgu+N1/M15hGvM4BGI0c5zYjVUCEiiRQAj+EvM2dp4cpB27BIxfAhKYIoGm4J9i+kpMUy57lFzwK35KrI7maRUBl6CtouO1qRNwkHaaJcS/RbrxxhunmbiZp8p+yswL0OQXS0B7NG7RskrgzDPPrPfgj5uS7Yk9lz1KLvgVP9tTSc2pBCQwfwK5jM38SZmDUgjYTymlJM1HaQS0R6WVqPnZj0Aue5Rc8O+XMa9LQAISkMB0COQyNtPJ8TRTYkd3muViqiQggXwEtEf5WDdj0v40aZT5XcFfZrmaq4wEcu2/yZglo5KABDITsMOVGbjRSUACEpBATUD7U35FSC743X9TfqUxh3sJ2FDu5eEvCUhgOAHbkeHM1r3DQdp1yXmfBCRQIgHtz3ilmsseJRf8VprxKo0xj0PAJWjjcDfWNAQcpE3D8aChaDsPSrD//bLuz0qfEshJQHuUk/ZuXLaJuyxyf8vFPrngV/zkrirGJwEJSGB9ArmMzfop3I47LYd85Ww/JR9rY5LAEAK2g0NopfMr93Qsh4aUyx4lF/xDM6p/CUhAAhIYj0AuYzNeDucRsx2ueZSTqZSABDZHQHu0ObarQtb+rKJTxjUFfxnlaC5GJJBr/82IWTRqCUhgwwTscG0YsMFLQAISkEAnAe1PJ5aiTiYX/O6/Kap+mJkeBGwoe0DSiwQksJKA7chKPEkvOkibFKeBSUACMyeg/RmvAHPZo+SC30ozXqUx5nEIuARtHO7GmoaAg7RpOB40FG3nQQn2v1/W/VnpUwI5CWiPctLejcs2cZdF7m+52CcX/Iqf3FXF+CQgAQmsTyCXsVk/hdtxp+WQr5ztp+RjbUwSGELAdnAIrXR+5Z6O5dCQctmj5IJ/aEb1LwEJSEAC4xHIZWzGy+E8YrbDNY9yMpUSkMDmCGiPNsd2Vcjan1V0yrim4C+jHM3FiARy7b8ZMYtGLQEJbJiAHa4NAzZ4CUhAAhLoJKD96cRS1Mnkgt/9N0XVDzPTg4ANZQ9IepGABFYSsB1ZiSfpRQdpk+I0MAlIYOYEtD/jFWAue5Rc8Ftpxqs0xjwOAZegjcPdWNMQcJA2DceDhqLtPCjB/vfLuj8rfUogJwHtUU7au3HZJu6yyP0tF/vkgl/xk7uqGJ8EJCCB9QnkMjbrp3A77rQc8pWz/ZR8rI1JAkMI2A4OoZXOr9zTsRwaUi57lFzwD82o/iUgAQlIYDwCuYzNeDmcR8x2uOZRTqZSAhLYHAHt0ebYrgpZ+7OKThnXFPxllKO5GJFArv03I2bRqCUggQ0TsMO1YcAGLwEJSEACnQS0P51YijqZXPC7/6ao+mFmehCwoewBSS8SkMBKArYjK/EkveggbVKcBiYBCcycgPZnvALMZY+SC34rzXiVxpjHIeAStHG4G2saAg7SpuF40FC0nQcl2P9+WfdnpU8J5CSgPcpJezcu28RdFrm/5WKfXPArfnJXFeOTgAQksD6BXMZm/RRux52WQ75ytp+Sj7UxSWAIAdvBIbTS+ZV7OpZDQ8plj5IL/qEZ1b8EJCABCYxHIJexGS+H84jZDtc8yslUSkACmyOgPdoc21Uha39W0SnjmoK/jHI0FyMSyLX/ZsQsGrUEJLBhAna4NgzY4CUgAQlIoJOA9qcTS1Enkwt+998UVT/MTA8CNpQ9IOlFAhJYScB2ZCWepBcdpE2K08AkIIGZE9D+jFeAuexRcsFvpRmv0hjzOARcgjYOd2NNQ8BB2jQcDxqKtvOgBPvfL+v+rPQpgZwEtEc5ae/GZZu4yyL3t1zskwt+xU/uqmJ8EpCABNYnkMvYrJ/C7bjTcshXzvZT8rE2JgkMIWA7OIRWOr9yT8dyaEi57FFywT80o/qXgAQkIIHxCOQyNuPlcB4x2+GaRzmZSglIYHMEtEebY7sqZO3PKjplXFPwl1GO5mJEArn234yYRaOWgAQ2TMAO14YBG7wEJCABCXQS0P50YinqZHLB7/6bouqHmelBwIayByS9SEACKwnYjqzEk/Sig7RJcRqYBCQwcwLan/EKMJc9Si74rTTjVRpjHoeAS9DG4W6saQg4SJuG40FD0XYelGD/+2Xdn5U+JZCTgPYoJ+3duGwTd1nk/paLfXLBr/jJXVWMTwISkMD6BHIZm/VTuB13Wg75ytl+Sj7WxiSBIQRsB4fQSudX7ulYDg0plz1KLviHZlT/EpCABCQwHoFcxma8HM4jZjtc8ygnUykBCWyOgPZoc2xXhaz9WUWnjGsK/jLK0VyMSCDX/psRs2jUEpDAhgnY4dowYIOXgAQkIIFOAtqfTixFnUwu+N1/U1T9MDM9CNhQ9oCkFwlIYCUB25GVeJJedJA2KU4Dk4AEZk5A+zNeAeayR8kFv5VmvEpjzOMQcAnaONyNNQ0BB2nTcDxoKNrOgxLsf7+s+7PSpwRyEtAe5aS9G5dt4i6L3N9ysU8u+BU/uauK8UlAAhJYn0AuY7N+CrfjTsshXznbT8nH2pgkMISA7eAQWun8yj0dy6Eh5bJHyQX/0IzqXwISkIAExiOQy9iMl8N5xGyHax7lZColIIHNEdAebY7tqpC1P6volHFNwV9GOZqLEQnk2n8zYhaNWgIS2DABO1wbBmzwEpCABCTQSUD704mlqJPJBb/7b4qqH2amBwEbyh6Q9CIBCawkYDuyEk/Siw7SJsVpYBKQwMwJaH/GK8Bc9ii54LfSjFdpjHkcAi5BG4e7saYh4CBtGo4HDUXbeVCC/e+XdX9W+pRATgLao5y0d+OyTdxlkftbLvbJBb/iJ3dVMT4JSEAC6xPIZWzWT+F23Gk55Ctn+yn5WBuTBIYQsB0cQiudX7mnYzk0pFz2KLngH5pR/UtAAhKQwHgEchmb8XI4j5jtcM2jnEylBCSwOQLao82xXRWy9mcVnTKuKfjLKEdzMSKBXPtvRsyiUUtAAhsmYIdrw4ANXgISkIAEOglofzqxFHUyueB3/01R9cPM9CBgQ9kDkl4kIIGVBGxHVuJJetFB2qQ4DUwCEpg5Ae3PeAWYyx4lF/xWmvEqjTGPQ8AlaONwN9Y0BBykTcPxoKFoOw9KsP/9su7PSp8SyElAe5ST9m5ctom7LHJ/y8U+ueBX/OSuKsYnAQlIYH0CuYzN+incjjsth3zlbD8lH2tjksAQAraDQ2il8yv3dCyHhpTLHiUX/EMzqn8JSEACEhiPQC5jM14O5xGzHa55lJOplIAENkdAe7Q5tqtC1v6solPGNQV/GeVoLkYkkGv/zYhZNGoJSGDDBOxwbRiwwUtAAhKQQCcB7U8nlqJOJhf87r8pqn6YmR4EbCh7QNKLBCSwkoDtyEo8SS86SJsUp4FJQAIzJ6D9Ga8Ac9mj5ILfSjNepTHmcQi4BG0c7saahoCDtGk4HjQUbedBCfa/X9b9WelTAjkJaI9y0t6NyzZxl0Xub7nYJxf8ip/cVcX4JCABCaxPIJexWT+F23Gn5ZCvnO2n5GNtTBIYQsB2cAitdH7lno7l0JBy2aPkgn9oRvUvAQlIQALjEchlbMbL4TxitsM1j3IylRKQwOYIaI82x3ZVyNqfVXTKuKbgL6MczcWIBHLtvxkxi0YtAQlsmIAdrg0DNngJSEACEugkoP3pxFLUyeSC3/03RdUPM9ODgA1lD0h6kYAEVhKwHVmJJ+lFB2mT4jQwCUhg5gS0P+MVYC57lFzwW2nGqzTGPA4Bl6CNw91Y0xBwkDYNx4OGou08KMH+98u6Pyt9SiAnAe1RTtq7cdkm7rLI/S0X++SCX/GTu6oYnwQkIIH1CeQyNuuncDvutBzylbP9lHysjUkCQwjYDg6hlc6v3NOxHBpSLnuUXPAPzaj+JSABCUhgPAK5jM14OZxHzHa45lFOplICEtgcAe3R5tiuCln7s4pOGdcU/GWUo7kYkUCu/TcjZtGoJSCBDROww7VhwAYvAQlIQAKdBLQ/nViKOplc8Lv/pqj6YWZ6ELCh7AFJLxKQwEoCtiMr8SS96CBtUpwGJgEJzJyA9me8Asxlj5ILfivNeJXGmMch4BK0cbgbaxoCDtKm4XjQULSdByXY/35Z92elTwnkJKA9ykl7Ny7bxF0Wub/lYp9c8Ct+clcV45OABCSwPoFcxmb9FG7HnZZDvnK2n5KPtTFJYAgB28EhtNL5lXs6lkNDymWPkgv+oRnVvwQkIAEJjEcgl7EZL4fziNkO1zzKyVRKQAKbI6A92hzbVSFrf1bRKeOagr+McjQXIxLItf9mxCwatQQksGECdrg2DNjgJSABCUigk4D2pxNLUSeTC3733xRVP8xMDwI2lD0g6UUCElhJwHZkJZ6kFx2kTYrTwCQggZkT0P6MV4C57FFywW+lGa/SGPM4BFyCNg53Y01DwEHaNBwPGoq286AE+98v6/6s9CmBnAS0Rzlp78Zlm7jLIve3XOyTC37FT+6qYnwSkIAE1ieQy9isn8LtuFPbma+cZZ2PtTFJYAgB7dEQWun82iamYzk0pFzskwv+oRnVvwQkIAEJjEdgE8ZmMUvzu8rP/gye9KQnVRwy688MVjoJSKAcAuvYI9vMYW1mFy/tz8EZNrlO8YlU8E+xVEzTrAjk2n8zKygmdisJYPDe/OY3Vy9+8YurJz7xiVV03vx8rCwem57B4YcfXh133HHV29/+9q183sy0BLaZQNPeHHbYYVWsDvDzMbJ4zHgMnv3sZ1cnnXRSdckll0zq8Uwu+BcjHJPKo4mRwEYJhHHZaCQGLoEZEDjmmGMUthsQtg6YrB4soA0eIvodpJ1BY2ISJbAPAe3N6nZRuzE+n0svvXSfWlxVuexRcsGv+Nm3bPVQGIFoVAvLltnZEgKpBmnPOOOMelbh6U9/enXddddV99xzj8vTf5d2meCirAwzONx55531LAptMH2Pyy67rNdTaz+lFyY9SSA7gb72qGlvrr/++uree+/NnlYjlEAXgdtvv70egA5tcN9993V52zmXyx4lF/yRwZ2c+EUCEpCABCZLIJWxOfroo2vRdcMNN0w2ryasTALnnntuXffOOeecXhm0n9ILk54kkJ1AX3ukvcleNEY4kMBRRx1V26Vrrrlm5Z257FFywb8yV16UgAQkIIFJEUhlbHjpD521/UazJ5V5E1MEgc997nN13Tv22GOLyI+ZkMC2Euhrj7Q321pD5pPvU045pbZLF1544SQSreCfRDGYiDkTyLX/Zs6MTHv5BPrOzJRPwhzmJnD11VfXHasjjzwyd9TGJwEJjEBAezMCdKMcRODss8+u7VLflWeDAl/Dc3LB33f/zRpp9RYJTJKAhmeSxWKiMhPwOcgM3Oh2CAwV/A7S7qDziwRmSUB7M8ti26pE9xX8uexRcsHvQ7hV9dnMVtXOW8mFIYE5Ekg1SGvbP8fSLyPNQwW/dbWMcjcX5RHoa498hssr+9Jy1Ffw56rLyQV/3/03pRWs+ZGABCQwRwKpjE2qcObI0DSPS2Co4LefMm55GbsElhHoa0f6+lsWj+clsGkCfQV/LnuUXPBvGqDhS0ACEpBAOgKpjI0dsHRlYkjDCAwV/MNC17cEJJCLQF97pL3JVSLGsy6BvoJ/3fCH3qfgH0pM/xJoEci1/6YVrT8lMCkCdsAmVRxblRgF/1YVt5mVQP0yNGyOTgJTJVC84O+7/2aqBWS6JDCUgEJnKDH9l0jA56DEUp1HnoYKfgdp51GuplICywhob5aR8fxUCPQV/LnsUfIZfh/CqVQ105GLQN8laLnSYzwSGEIg1SCtbf8Q6vpNSWCo4LeupqRvWBJIR6CvPfIZTsfckDZDoK/gz1WXkwt+xc9mKo6hSkACEtgEgVTGJlU4m8ijYZZNYKjgt59Sdn0wd/Ml0NeO9PU3XxKmfO4E+gr+XPYoueCfewGZfglIQALbRCCVsbEDtk21Zlp5HSr4p5V6UyMBCQSBvvZIexPE/Jwqgb6CP1f6Ffy5SBtPsQRy7b8pFqAZK4KAHbAiinGWmVDwz7LYTLQE1iZQor259tprqzvuuGMPkwcffLA68cQTd15SeO+99+65PqUfv/71r6vPfvaz1a9+9aspJWu0tBQv+PvuvxmtBIxYAokJlGh4EiMyuC0g4HOwBYXcyuLtt99e/fznP2+dPfhPOo7f+ta3qkcffbRXYEMFv4O0vbDqSQKTJVCavfnNb35Ti/rLL798D/PPf/7z9fkvfvGL1Te/+c0Kf1N1DFhQLvfff/9Uk5g1XX0Ffy57lHyGv7SHMGvtMLJZEui7BG2WmTPRxRNINUi7Ttu/bEbgtttuq1760pfWnYcjjjhi0mVA5+bSSy+dTBq/973vVddcc02W9PzBHzyhuvDCC5PHxUAC9enb3/52r7CHCv516mqvhOhJAhI4EIG+9qi0Z3iZ4H/rW99aPfOZzzwQ01w3K/j3ku4r+HPV5eSCX/Gzt8D9JQEJSGDKBFIZm3XCWdZBOPXUU6vDDz+8uv766yvE35TdO97xjkl1yF7wghdUb3rTm7Igm6vgt5+SpXoYiQQGE+hrR/r6G5yAEW74wAc+UD33uc+tBzmf+tSnVs973vOqd77znfXnYYcdVp/n3POf//zeqXv5y19e/d3f/V111FFH1fc/5znPqRgYvfXWW+twaLtf97rXVd/97nd3wmS7wGmnnVbbM/gy0HDJJZfsuX7GGWdUDMJz/dhjj62uuuqq+voJJ5ywc564SC+DN7gvf/nLO/nDrr/tbW/bWalwxRVXVC960Yuqyy67bCdeVneV4PoK/lz2KLngL6GQzIMEJCCBbSGQytis0wFbJvjpMOQSrQctZwX//Gb4D1rm3i8BCWyGQF97tI692UyKDx4qIvwzn/lMLaJPP/30WmR/7Wtfqz+PPvroikEAhHdTfO8XawwUYEdDVMPsyU9+cvXBD36wDutZz3pW9cIXvrAOihUGCG8EOeIb24yI557YtkVaCJftBXGdgQPeM4CoR8jj/2Mf+9jOqjfOc46w+P7e9763DoPBBtwnPvGJ+jrhMMjBirGf/exn+2VvFtf7Cv5cmVHw5yJtPMUSyLX/pliAZqwIAhh1jr6ua0bgjW98Yz0zQDh0AJgloAPUx/30pz+t/X/84x+v6MgQBtsCOE9nilkJOisY4ejAEO4tt9xSd0a4Rpx0gNgrGY7O2EknnVTfi583vOEN1fe///3ql7/8ZR0f54iLtLIyAUcH6OSTT67vIUw6UoQTjtmXiy66aKdD9ZrXvCYu7ftJZ+yVr3xlHSd5Ij8PPfRQvRqCNBBfsPvkJz9Zh7dfHknPRz/60To9cS+dtuYeerYJxCwU8bD6Ar/NJf10SAmL83A5/vjjq3jJVHQ6u2Zy6IDS0YQj93/1q1+tv29qSf++kPUgAQlMmgBtBUcpbtmS/re85S0VA+BDHe1viHnuxQbAC/sVjraYc3fddVd13333Veecc86ebVTYMa6HHcHeYFsffvjhOghezsc9bMHDdQ3gs0oAe9F02BbC/clPfrIj+LEBpbniBX/f/TelFaz52V4CNFwcOglsM4Ghz0HXjACiEtHILATCj+90Ivo4RDhpQGy+//3vr0U+MyN0fBCThIU45fq73vWuOkhmErhOXCx3/MIXvlB3TujU4Ojw4B/BTtoQrYheBhJ4/wBhvupVr6rD4Pt1111X/fa3v63DIO4PfehD9WzIMcccU6eN/fU44iStdMjo/PBipj7upptuqu9j2eXXv/716uKLL67Td95559WdNtJAXkkf39kOsV8em+lhkIJyIXzSF8s1I97Xv/71Fd/hEMs6Q/Djl3vOPPPMOm3M3JBPfuOWzeRQVtx3wQUX1IMiUUac25Tgd5C2T23TjwSmS4D2gaMU11fwP/LIIxXt/Xve857Og9l3HG3v+eefv4MnwscuhPvhD39YM6RNxxE2A7nYR5brx8AywhV35ZVX1vYG7scdd1xtf7CR4dqCn/Dwi+DHDsSBHeE84YVdKGVWP1jwGYL/7W9/e/P0Id9z2aPkM/wUIodOAttCoO8StG3hYT7nRSDVIO06bX+7gxDkmNFgZmOIC8HPssBw73vf+2p71OzkIGYRxThmPTDKzNaHQ9iTFzpDzE7znZUHCHkcop17mFXHtZf00+Hinq985Sv1df7Q2aIDdsopp9Tn+M5AAoMGQ1zMyDTzg0Bvzo609/Dvl0fiJz3tF0PBCFY4BjUYhGm6WIIagp9BC3g3HbM/3Ecdi45dM61wgUMs74x7GXiA4aYEP2Fz6CQggWkR6GuPSnuGQ5C339LfnuFHYL/2ta9dekR7TJvOYGq4CL/5gtkf/ehHdTuI4GfWHrtLe429+9SnPlUv7SecEPyEhT8GfLENYcdiz33bnscKAQagzz333EMOVr1hF7ABJbq+gj9XXU4u+BU/JVZb8yQBCZRKIJWxWSecdgchGLcFP7Pvy2Y0OM8S/RD8N954YwSzs8SQJYvh6MiQ1nDcSweG2Qdm4uMlRywrxyFa8U/nho7Ql770pZ0XDnG9LfjDP3snY0aDTwR0LM2MsCINfPbJI50tViOQHgQ6cSHom64t+Lm2Xx5JDxybLrZXcI5OICK86fjvBKQjOphcu/POO+tZH/zCkvzih6WfIfibMzn45zr/u7npYtBkU4LffkqTtt8lMB0CtAcc+7m+/vYLZyrXQ5DvJ/j7ppc2fYjgZ7UYTGO2n3geeOCB+hzClfRhE5r29e67767FetiGLntOOtj733RsAeCee+65R8FfVVUue5Rc8DcL1e8SkIAEJDBtAqmMzTodsK4OArTagp/OyKpZDToeIfibe+VZYk+6uB6uKfiZrWd2gfh44RAz5yFMQ/BzHx0T7iMNhMeS/1/84hd1kG3Bz79Rwg/LItuzGtEBoxPEcv+m65PH8H/HHXdUvNmZmRPiYolkuLbg75PHdueQsBiwiL2XXG+/RBERT9wh+GHHbzp3LCVlJon3L3AuBH97JifKjK0UTceyUu7blOBvxuV3CUhgOgT62iPaB45SHCsbaB9pZ9mKFSvK2jP8ffPbbtNjQGHZDP8NN9xQ82TAgaX4LLen/YdxzPBj/7CVpI8Vbqxi4zq2E8cb//n96U9/umL1AI4VXZzjZX0M9rIVDfvJwDXOGf4aQ5Y/Cv4smI2kZAK59t+UzNC8zZ8ARp1jiOsr+PuEGeJxiOBnKTmdrOY+xOjEIPgJk2X4zGaHi+sxK90W/LzgCA4333xz3FJ/vvvd7654oSCuS/Dv8bzkB52ws846a89VfhMfLyfEtQX/fnnknnbnkHNNwc87DNpL/mPPfgh+VgEwANF08dbmZYKfLQ2kvT2YwJ5Hziv4mzT9LgEJBAHaB46SHIO4ka+wSbTviOyhjja9uX2KAQTC7hL8Yatibz3+uB+RTtsfgh97GCvMIp1cb74ElxfQci3SzEBDrHqLe3h3DS/swyn4h5bs+v6TC/6++2/WT7J3SmBaBKIRm1aqTI0E8hJY5znomhEg1XQW1t3DP0TwMwOP4Kcjw4w9nQ+EK3lB8POW+ljOzrYAhD+dIK7HHn3ebk8YLIVkJQAzH3SW+J/JvA+A1QVxT3SsuN6e4e9TWszsEzcv+iO9LInn5Umciw4iv4mblzeaFwAAIABJREFUZZOc2y+PxEt6YvVBpKMp+Jn1IQ7EPdsKiDdmf0Lw0/GjI0fnj+vEyz0cywQ/cREP/NjSwAAAM0385r5NCX4HaaOU/ZTAPAlE2zLP1E831bTvvL9mlcP2YF+aA+Gr/HONth37xX8D2BbXdw9/LnuUXPD7EG5LVTafQaDvErTw76cEpkQg1SDtum1/e0YANrwJf6jgjzcON/+lXixTXLakH3GKOI608+b5mMGPJf3s2Y9/Rxf++Pd7seSSgQAGKLgWaaYzxIx4+Ofzwx/+8E6xI7BDKO+c7PmFt9nzHwAibMRx/NskgmCQIQYtSHufPJKe5mwQ4Zxxxhk7S/r5HUszI17eSwCvyAdLNXlPQVxH/Mdqh1WCn2v828O4j/wQJr83Jfgjrp7I9SYBCWQi0Nce+QxnKhCjWZtAX8Gfqy4nF/yKn7XrhjdKQAISyE4glbFJFU52AFVVv42f2flVDmHPDEXMpK/yG9cIkz30zf9nH9cO+klaGOTo+6Z//uPAfnncL00szyReZoGWOfZuxn8wWOan6zz3EHYMpHT5WXaO1QHUvyOPPHKZlz3n7afsweEPCUyGQF870tffZDJmQraOQF/Bn8seJRf8W1eiZlgCEpDAjAmkMjZ2wGZcCWae9KGCf+bZNfkSKJZAX3ukvSm2ChSTsb6CP1eGFfy5SBtPsQRy7b8pFqAZK4KAHbAiinGWmVDwz7LYTLQE1iagvVkbnTdmIlC84O+7/yYTb6ORwMYJaHg2jtgIZkDA52AGhVRoEocKfgdpC60IZmtrCGhvtqaoZ5vRvoI/lz1KPsPvQzjbumnC1yTQdwnamsF7mwQ2SiDVIK1t/0aLycBXEBgq+K2rK2B6SQIjEuhrj3yGRywko+5FoK/gz1WXkwt+xU+veqAnCUhAApMgkMrYpApnElBMxKwIDBX89lNmVbwmdosI9LUjff1tETqzOjECfQV/LnuUXPBPjLfJkYAEJCCBFQRSGRs7YCsge2mjBIYK/o0mxsAlIIG1CfS1R9qbtRF7YyYCfQV/puRUCv5cpI2nWAK59t8UC9CMFUHADlgRxTjLTCj4Z1lsJloCaxNgYACbo5PAVAkUL/j77r+ZagGZLgkMJaDQGUpM/yUS8DkosVTnkaehgt9B2nmUq6mUwDICT3rSk2rBf9999y3z4nkJjErglFNOqevohRdeuDIduexR8hl+O30ry9WLBRLouwStwKybpQIIpBqkte0voDLMNAtDBb91daYFbbKLJ9DXHr3sZS+rxdQNN9xQPBMzOE8CRx11VF1Hr7nmmpUZyGWPkgt+xc/KcvWiBCQggUkRSGVsUoUzKTgmZhYEhgp++ymzKFYTuYUE+tqRM888s+I5PuKII6rrr7++uueee6vFTGnl5+9kMGZduP3226tYzv97v/d71X6rUHLZo+SCfwvbJ7MsAQlIYLYEUhkbwqGzppNAbgJDBX/u9BmfBCTQj8AQe3TsscfWoj/uicECPx9T22I5jMMh6iNi/9JLL+1X8TP4UvBngGwUZRPItf+mbIrmbu4EHv/4x9edjIcffnjuWTH9MyNwxRVX1HXvJS95ycxSbnIlIIGDEDj99NMrnvsnPvGJe8R/iC4/HyuXx+Zl8OxnP7s66aSTJiX2ecaSC/6++28O8oB7rwSmRCBGUaeUJtMigdwE/vRP/7QWXbfeemvuqI1vywlccMEFdd078cQTe5FwkLYXJj1JQAISkMCGCeSyR8kFv+JnwzXD4CdHIEaQJ5cwEySBHgRSDdIeffTRtehimaVOArkIfOc736n38dIOn3POOb2itZ/SC5OeJJCdQCp7lD3hRiiBNQnkskfJBb/iZ80S9zYJSEACIxBIZWx+8IMf7Cwd/MM//MPqGc94RvWCF7zAQwYbqwNPe9rTqsc97nF1vaO+9XX2U/qS0p8E8hJIZY/yptrYJLA+gVz2KLngXz/L3ikBCUhAArkJpDQ2d955Z8W/ookw/cy7d3BbebO6RCcBCcyfQLRh88+JOZDAtAgo+KdVHqZmhgRy7b+ZIRqTvIUEWJJ51113VTfffHPF29M9ZLCpOnDbbbdV999//xY+ZWZZAhKQgAQk0J9AcsHv/pv+8PVZBgGXoJVRjuZCAhLYDgIO0m5HOZtLCUhAAlMnkMseJRf8ip+pVy3Tl5qAS9BSEzW8nAQcpM1J27imQMB+yhRKwTRI4FAC2qNDmXimbAK57FFywa/4KbtimjsJSKAsArmMTVnUzM2cCdhPmXPpmfaSCWiPSi5d89ZFIJc9Si74uzLjOQlIQAISmCaBXMZmmrk3VRKQgAQkMBUC2qOplITpKI2Agr+0EjU/2Qnk2n+TPWNGKAEJSEACEpCABCQgAQnMmkBywe/+m1nXBxO/BgGXoK0BzVskIAEJjETAQdqRwButBCQgAQnsIZDLHiUX/IqfPeXojy0g4BK0LSjkgrPoIG3BhWvWOgnYT+nE4kkJjE5AezR6EZiAzARy2aPkgl/xk7mmGJ0EJCCBAxDIZWwOkERvlUBSAvZTkuI0MAkkI6A9SobSgGZCIJc9Si74Z8LXZEpAAhKQQFVVuYyNsCUgAQlIQAKrCGiPVtHxmgTWJ6DgX5+dd0qgJpBr/424JSABCUhAAhKQgAQkIAEJDCGQXPC7/2YIfv2WQMAlaCWUonmQgAS2hYCDtNtS0uZTAhKQwLQJ5LJHyQW/4mfaFcvUpSfgErT0TA0xHwEHafOxNqZpELCfMo1yMBUSaBPQHrWJ+Lt0ArnsUXLBr/gpvWqaPwlIoCQCuYxNSczMy7wJ2E+Zd/mZ+nIJaI/KLVtz1k0glz1KLvi7s+NZCUhAAhKYIoFcxmaKeTdNEpCABCQwHQLao+mUhSkpi4CCv6zyNDcjEMi1/2aErBmlBCQgAQlIQAISkIAEJDBjAskFv/tvZlwbTPpaBFyCthY2b5KABCQwCgEHaUfBbqQSkIAEJNAikMseJRf8ip9WSfqzeAIuQSu+iIvOoIO0RRevmesgYD+lA4qnJDABAtqjCRSCSchKIJc9Si74FT9Z64mRSUACEjgQgVzG5kCJ9GYJJCRgPyUhTIOSQEIC2qOEMA1qFgRy2aPkgn8WdE2kBCQgAQnUBHIZG3FLQAISkIAEVhHQHq2i4zUJrE9Awb8+O++UQE0g1/4bcUtAAhKQgAQkIAEJSEACEhhCILngd//NEPz6LYGAS9BKKEXzIAEJbAsBB2m3paTNpwQkIIFpE8hlj5ILfsXPtCuWqUtPwCVo6ZkaYj4CDtLmY21M0yBgP2Ua5WAqJNAmoD1qE/F36QRy2aPkgl/xU3rVNH8SkEBJBHIZm5KYmZd5E7CfMu/yM/XlEtAelVu25qybQC57lFzwd2fHsxKQgAQkMEUCuYzNFPNumiQgAQlIYDoEtEfTKQtTUhYBBX9Z5WluRiCQa//NCFkzSglIQAISkIAEJCABCUhgxgSSC37338y4Npj0tQi4BG0tbN4kAQlIYBQCDtKOgt1IJSABCUigRSCXPUou+BU/rZL0Z/EEXIJWfBEXnUEHaYsuXjPXQcB+SgcUT0lgAgS0RxMoBJOQlUAue5Rc8Ct+stYTI5OABCRwIAK5jM2BEunNEkhIwH5KQpgGJYGEBLRHCWEa1CwI5LJHyQX/LOiaSAlIQAISqAnkMjbiloAEJCABCawioD1aRcdrElifgIJ/fXbeKYGaQK79N+KWgAQkIAEJSEACEpCABCQwhEBywe/+myH49VsCAZeglVCK5kECEtgWAg7SbktJm08JSEAC0yaQyx4lF/yKn2lXLFOXnoBL0NIzNcR8BBykzcfamKZBwH7KNMrBVEigTUB71Cbi79IJ5LJHyQW/4qf0qmn+JCCBkgjkMjYlMTMv8yZgP2Xe5WfqyyWgPSq3bM1ZN4Fc9ii54O/OjmclIAEJSGCKBHIZmynm3TRJQAISkMB0CGiPplMWpqQsAgr+ssrT3IxAINf+mxGyZpQSkIAEJCABCUhAAhKQwIwJJBf87r+ZcW0w6WsRcAnaWti8SQISkMAoBBykHQW7kUpAAhKQQItALnuUXPArflol6c/iCbgErfgiLjqDDtIWXbxmroOA/ZQOKJ6SwAQIaI8mUAgmISuBXPYoueBX/GStJ0YmAQlI4EAEchmbAyXSmyWQkID9lIQwDUoCCQlojxLCNKhZEMhlj5IL/lnQNZESkIAEJFATyGVsxC0BCUhAAhJYRUB7tIqO1ySwPgEF//rsvFMCNYFc+2/ELQEJSEACEpCABCQgAQlIYAiB5ILf/TdD8Ou3BAIuQSuhFM2DBCSwLQQcpN2WkjafEpCABKZNIJc9Si74FT/TrlimLj0Bl6ClZ2qI+Qg4SJuPtTFNg4D9lGmUg6mQQJuA9qhNxN+lE8hlj5ILfsVP6VXT/ElAAiURyGVsSmJmXuZNwH7KvMvP1JdLQHtUbtmas24CuexRcsHfnR3PSkACEpDAFAnkMjZTzLtpkoAEJCCB6RDQHk2nLExJWQQU/GWVp7kZgUCu/TcjZM0oJSABCUhAAhKQgAQkIIEZE0gu+N1/M+PaYNLXIuAStLWweZMEJCCBUQg4SDsKdiOVgAQkIIEWgVz2KLngV/y0StKfxRNwCVrxRVx0Bh2kLbp4zVwHAfspHVA8JYEJENAeTaAQTEJWArnsUXLBr/jJWk+MTAISkMCBCOQyNgdKpDdLICEB+ykJYRqUBBIS0B4lhGlQsyCQyx4lF/yzoGsiJSABCUigJpDL2IhbAhKQgAQksIqA9mgVHa9JYH0CCv712XmnBGoCufbfiFsCEpCABCQgAQlIQAISkMAQAskFv/tvhuDXbwkEXIJWQimaBwlIYFsIOEi7LSVtPiUgAQlMm0Aue5Rc8Ct+pl2xTF16Ai5BS8/UEPMR6BqkXRigvWnwXFXJoAwG9lP2Ptv+ksBUCGiPymhjqU/ay34Mctmj5IJf8TOVZtN0SEACEtifAG02BqfpugyQ56qak6weM/v6Yj+l+bT7XQLTIaA90s5QG7epv5HLHiUX/NNpNkyJBCQgAQnsR+DII4+sMDhN12WAPFfVnGT12CLqS7O++10CEpgGAe2RdoaauG39jRxPn4I/B2XjKJrAYtnS74rOo5mTgAQkIAEJSEACEpCABOZHILngd/9Nvz0bVBX3t5TBoGvp0fyaAlMsAQlIQAISkIAEJCABCZRGILngZxmGexznv8eRit4lZD13KJeupUelNRTmRwISkIAEJCABCUhAAhKYH4Hkgt/9N9u396RL8G7bufk9+qZYAhKQgAQkIAEJSEACEiidQHLBXzow8ycBCUhAAhKQgAQkIAEJSEACEpgDAQX/HErJNEpAAhKQgAQkIAEJSEACEpCABAYSUPAPBKZ3CUhAAhKQgAQkIAEJSEACEpDAHAgo+OdQSqZRAhKQgAQkIAEJSEACEpCABCQwkICCfyAwvUtAAhKQgAQkIAEJSEACEpCABOZAQME/h1IyjRKQgAQkIAEJSEACEpCABCQggYEEFPwDgeldAhKQgAQkIAEJSEACEpCABCQwBwIK/jmUkmmUgAQkIAEJSEACEpCABCQgAQkMJKDgHwhM7xKQgAQkIAEJSEACEpCABCQggTkQUPDPoZRMowQkIAEJSEACEpCABCQgAQlIYCABBf9AYHqXgAQkIAEJSEACEpCABCQgAQnMgYCCfw6lZBolIAEJSEACEpCABCQgAQlIQAIDCSj4BwLTuwQkIAEJSEACEpCABCQgAQlIYA4EFPxzKCXTKAEJSEACEpCABCQgAQlIQAISGEhAwT8QmN4lIAEJSEACEpCABCQgAQlIQAJzIKDgj1K64INVdeeP41f35zduqar3f7j7Wpz90Z1V9X/PqCo+13XvvqCqvnbT6rtJyzJ36eVV9dVrll2tqt/8pqoefXT3+vsurKpPfmbxm3TvF/funVV1/vur6vIrm2cO9v3LV1XVdV87NIwf3llVb3jz3nQf6sszEpCABNYj8NvfVtUjj+zee8f3q+rjn9r93ffb/T+vqpcdU1W3fqvvHQt/Z5+7vw1aFiJ26XVvXHZ1/PMXXlRVDz60m46HH66qU8+sKtr1/dzfvqOqLv7cfr68LgEJSGD+BE44uarow69yP/lpVXVpgC9+qao+fcmhd97+vaqiHV3mvv2dqkJ3dLkbbqyqT1zcdaWMczd+41DN8Q9fqCps1n7uO7dX1XEnVtUvfrmfz0lcL0fw//N/VVV9jw99bC/8e+6tqn/yz6rq1X9VVc9/yd7j9LOq6t77Fp0VHoh/+/t7723++u4dVfWv/t0iHXzyu8vR8XnOC6rqz5+/96CjeN77Fmk58qiqetf5i+OSy/aGcs31Cz9veuve8/HrT/6sqo49IX4d+knn6Z/+i6r69a8X1x77hKo6+bTFdwYrYPHZfzj0vvaZn9618NunU/yxv1/kjfxxfOkr7dAWv5/3oqp66V8ceo2BCNIcnVoexj96SvfxzvMPvd8zEpBAHgJvPad/W0zbMxXHwCVt38/uXqToAx+pqn/5b9ZL3X/6L93tWDs02rsYbCXuL1y5iLPLli1r07mHe//94xeDzbThcfz4J+0YFyKbDmAuxwAy6fvWbbsxhp3BFmOP4njo4V0/fGPQhHuf+dxdexh2sfmJbf7d7/be6y8JSGB7CXS1ocvONTUB/ce//Kv+xzKhPIT8r35VVVdftzjov//+f9z9fcs3FxN4DJC+4tVV9Qd/vGgT/8OTd9s8JskYoEbD/M//fWjM9OfpPy9zH/74wmbHdfzTZ8e9/tRFPzuuDflEAzUnF/e7Fw7Yi+bg8H73HPT6M55bVf/9yN1Qfv7AgtXT/nzXLmGfuiZCuQ/71LRFXd+77t2NMdu3cgQ/0N9xXlVdde3ugaD+6N/v/uYaHbj2A3ruexcFjJD+H/9rUYAn/k1VcTCDzYPFDMoqwc9DSWNCx4ROC5/85nzbcZ2HiE4hfvjOwaw8+XjcH1UVHcFIy4te3g5hkR780gAwM9V0f/zfquqvTmme2fv9lcdV1X99+uIcM1qEQ4UOR8eSc6x6CMdDS1zN48l/svD3klfsPd/0E6sm/vVjFh3S//y0RRkwoNHlugQ/jQAH/EnXtTdU1c23VhUrE9oHjeGyjnFXfJ6TgATSEvibNy86LM22mNlr2p3mOfzR/jUdHQ8GS/sctO0pHe1Wc0C3r+CnI0W71PdgADkcAx7v/cDiF/cj3kPAv/GMRSeDARSuhb+4l09mZoifdrXZSYUf93TNoNPG0qnM5eDK4Gw4BntJG2lkkIIjGLZXxh3xnIW9+LPnVdV+x5COZaTFTwlIoEwCtDHraAL6tfQjoz2lbeIcv9ECtFtxDX9cO6iLdpy42gfC8y/+T1XRh2aSD/vA5GDT0f5jJ9qCn7RG2wqPCBtt1HRtwc/1mHhbR/AzgILWijhf+/pmbMu/w4F7ulb5Lr9r/SsMiBMfKyNwTIKi3TgXtolPfgePiI00ch4ttZ9t6rNaIMLd4GdZgp+OBJ0pZi84KAyEOt8Z/cJReG3Bj/BmCSaOa+1Znf0EP0toeJB4MGPWnE9+c37Z8hxGh+h84RjRorPJA8oIE44RPTrErEDocswM8WC2BT8DBnSmlzkaDhoHXMy+tDuGNGgnNZaIxoPAw8DRHGWMc12fTcEfo6h0/BH8jETCtnnAizxzjkYIR9m8+OWL0Uy+I/iXOVZoKPiX0fG8BDZPgLaHThDtUrTFLFNk1iJ+02FhmWBb8GPwabP7HPhtO9p/tgUNdcwOkxbaH9LOQXuMDYnf8XnUq/aG/vVvVBXLHj//xYV/2jl+x0GYiPf4zZaqcF2Cn2vMrhA3HSU+aVvbM9jYu0gvA7dc52Dwlnsu+uSh9xB2TsGPXSONMKFTykoy0sbBQDbp/f4PFza33Slk0Dr8xcqwrs+YiQqmfkpAAhKg7VhHE9DOI3LD0dc95z2LX6e8qaqYEQ6HP/y3HTaoObDbvt71m744miEc/fvQBwj+rpn78IuuwS4xkIue+cgnFm1r2CaW88MjbND3frC4k/aXAVnsLfYPe0SfHR3CgUYhbK7xPTTLqsFVbDtt/sv/sqp++WBVnfaW3bgjvcs+cwt+NBZ6iFXU2CeEO5xI/003L1JJGfP7Bz/aTTX8or/QZZOa5+jzTMSVJ/gRwBRY1wH0tuCP2ZTL/3EfOpWfCoCI56Bglwn+++5fPITExYPALHTT8TsqEII1hHz4ocLEvpq3vWu3ohE/R+SB780Zkrh/2Scd1WOP775KpSVc4sZfjMLxveuAV9vRSPBwcI2OJg81AyUx2NH2z2/y0Bb8LM9n1Kx50MiQDs5ddsUipBD8/CL9lFX7YE8TTsG/4OBfCYxFIAQ/q5uiDWt/MlPRJfgPmma2ShHX0P3z7NnjPmaUo2PDAAXn4nd8smdvmaP9ag4oRwcm2qf2fV2CHwGMPaCTQfx8sjKi6Zjt51qfo90hzSn4Q7Szqg17QUeIzmvYXTqpMGOWpDkQwooQ8obd45NOd9cRtrLJxu8SkIAEaDcQ/EM1wUEFf2xDwhYNcbG1OCa0SDeiGbdK8DOwHraiaQ+a7emyJf0P/GLRvjIDjSbA/mG/CQf7R7tM+0z4fI+j+a6bdh5DY0R/n0EGwmtvTW7fx++wlzlm+NmSTL6YjKAvgi1Gj1FnGDiBR6x2vuL/7aaWgRzsDvaM++HTZZs4R75j4nI3hNG+lSf4GV2iIKMwWfbJ97t+toBMIUWHjAeC3xRKPGSIewoxhDAz4V2CnwpAhcDvX5+6mIHpmuHmHJUmwvzK1Yt0RKPACyNIBzMhzaWbPOCET8fumNfurjpgFomHMo521eHhJz9Uwi7HnhpG3OIgDvIXv9ufsRKgGVakMzqhvLiCOFe9uKJL8DfDjO90RttLZ5qCnxf3ERflEwe/GaHEKfiDpJ8SGIdACH5mAaIt5hwrj+I37d0mBD/tJYOR7cHVVSRIC+1lWxj3XdLPwCQClQN7Qnsav2nPaPvjN5/NbV4wYVsSjnYsBn5JD3aD2evosBJ2rGrA32teV1XYofbgZ/M3grqdrxD82EEGV4kXZrd9d5cSM03RYYuzdIaa28uwJU995iJ/pJcBXOxHtN/MLhE2B4PEpD+2jmH34BTXzzx770o2ViewF5L8w498dh1su8O26CQgAQk0CdC2IN6GaALuP6jgR0TTnrIduK9jiyorX6M/znfSj8DmfSfoAdpPxGnzIH+hJWiPGSBgYBr7Rxqife36pH1n9pn2NZb0MyAbfqM/v86SfsQzgpdBDPLA4MGqVQHBKQQ/k62spCAttO/YFWwIDhvSngBl0pH4YnUfv7FDodHYHs27xrA5MRASdpVVGyH4CZ98YxuDA3nh/QqxkpqJXFYo333Pwn5ip7tsE+eIX8G/KLekfymcv//0opApaA7O0SGJ3yyt56EJwd+s3Ah+lrVzT1QaCosBAyoJgjI6SCScPR+IeTqw7DtsC+Xmb7YT4IdOVIxcRfqiUnENAc3DhyOt0ZFhdA5xi6MTRdjRICzO7v6NPBAunapVLhoKHgQegvbRdW8sF4VNNDyRFyp+nOOzuZSFvHDwoHIvDwwNMbNlzRc19RH8zSVVpJFOs4K/q7Q8J4H8BELwI2Sj7eUZ5bmP33RMNiH418lttKXtF+v0Ffy0ZeSNDlafY9lMBwI3ViiEnaDziGOZJYMF0VmJfNIxYjZi2YGg7xL82Bk6SFd+eTHbjo3jXCxDJT+I8KajfafjhmN1G34Ig9l6bCYdO+wOS0rpHOGXgQDOheCHNXaAczGoQIcy/NH+N11sbaDN7zqII+xk8z6/S0AC202ANmaoJoBYU/AjUmkX48XUfZf0DyVPXzz6zmED4vdb3r4Q/GgAlvXzji7yxnf649hZ2nlccw8/L0nFjjQPtgmgJzhH/5vvtKEh+DmHRuK9XOHWEfyxVZh0YiMYjMAhgsO2RfjNzxD8MCff+OWTcGCPCzHevI9044f84LDD2Ce2NhAGW5S5zkGZho6BaVPwx3vTOM+WZlY+xMAD4cWEbcQNdwYEumxT3KfgD1qJPllKTkHSkWKp6LKDgm8KfkbgovIg+KnkhEMnKyoeYr1L8B8k6bHkhbhIEzMjDEwg+DnXdYTgj3hjmUz8js9YKkkHKh6QuNb+ZJtBV1xxjpcYNh1vL+UaDyNHdN6jgXrhy3bP4Y9lsuHolOGfGTgaLDrJcOYhijfv47eP4Kc8miNqhK3gD9J+SmBcAhhKxB/Gd1lbzGzxVAQ/YpnBX0bume2PA/tA+xS/47M9U0Fb1pz5HkqfGX8GcWkz6ajQhnMullYym7/M0amjU7LsoD3tEvzE1XxrPgMKnGM2CUe+Vwn+SG+sOOCe6HQh+GPbFwMKhBuC/+3vrioOZkeYhWIAgMEg/k0fgwYMYDRdzPDTvncdrGBQ8DeJ+V0CElhXE0CuKfiZ2aX9ij3vmxL8zRJjso84m665pJ82kv53OOwRmgIXgh9bxX+bQdc0D0QoA62cYyabPj32KwQ/YdDOoi/CDRX8sGIQgTSSD3QV7T8H59rvaol4+AzdxSqFpkM7EBZ2IjRb83rYHvocoaPw13TYGcKAF7Ydmw8PypSBIYQ7eWfVBGllNTWCnkEDBsJ5uXuseohwuQ6/LtvEOeyogj9oJfpk9pyCRJyzvJKZiPYRhd8U/MyW0MnjXpa38EkBIZbpSNBxwS0T/HTE6Nj2PRipwpGWeBjY20kHqCn4eXgRxqQjvvcV/NGBYraICrzMsTKB/HIw6048cfCCKc4zixOOSs85llDyoPBAh+ta0k/+2oI/loiSRh4SHPkk3FgN0Efw458HLQ5+83DhXNK/4OBfCYxFAAPP843RpAPSbov5TVszFcEf7x6hnact2e+gDWw6ZloOIvhpf2nfae/DLpAG7ApL2+HZfns98bMyinhXHXRyugR/l0jGNrLMEbef4Kcdbt7MAAAOsklEQVSd7gqDuMJuYl9jpoe6QPjMrDCgATPySh4R+gx0xMq6RQoWfxl0Dr/453v7WPUfaZph+V0CEtgOAutqAuiE4GdAkra52Y+mb0w7zQpf/qsW4rXdvq5DmL72MrvDe8WYnEP04tqCP+JDyGILaCc5znrn7vc4F3Hwm/TjuK8p+DmHLSTfHPjlvvjdFuOLUBZ/2duPNmBWn0FkBDj3MmARK4pDizXvi+8h+BnAbjpWWBAOA+Hcz/emawr+WLnd/pe0sR2Y/MZKuRD8saSfcmCSIgYsiIuVdcvyfPxf7664wIa1bRO/mdSdiCtjDz9AqQCM/rCfno4ID2YcFASzOLim4Od3CH4eIka+GBmjs0p45//jHpxlgp/BBWZBOCh47qFixDk6hoyOxe94CR1xshoB/03BT4eHc1R6Ki0NC98ZEOgj+GmgIt3xALAFoMvRUNGpixHM2KvP0hvO8zblpoMLo2A4RHoqwR9LP3nwcH0Ef/hd3OGS/uDgpwSmQIC2FhGGUaU9oqMSbTGfnGOGYROCnxlh2mDaq6GO7VC0t3GcftaisxO/47P9X1MQratmLfZLB4Odb/7bRZtKO88gCbMMDMqyt5OBTc4zsNp02JH2CgoGUxhQbZ5na0LT0cbSIWs7zkXbig0g/01H2NHu07Fs2yT8EkYIfn53CX7sB2Gx5YxZFOJie9zlV1ZVe1UZAwXYUeoMnW++t492Optp9rsEJLB9BA6iCRDwbDVFKyB2423tUPzGLQvhS5vFgVZoC372j2ODGKzt67CVCGJ0QQhaVrEimHn/GKtieaM8ri346ePTbjeFOWKeMJkIi21h3IstjoGDRWiLv23Bj82gnebgfWFokfhNmpY5/pU3bXVzgBoOnIMnn/Ef07rCwMbip/2fzWLVA3kNPs37Y8CEtJFnwohVGeEvNBqCPxzcmkv66Tcw6E0Y5CEGUAiXeNsvK+S9N7AhPsJv2yZ+t7cKRtwjfJYh+Jk1oLLjEPwI96bjQdlP8NMBpXOBo3ApwHhQlgn+ZhxUEmZTYraIa8RJZ7BZweIeltsQR1PwxyqDeHC5Ht/bnatY0k/jEv8+D9GO/+js0rEjTTGaFXFH/mLGPR5IKjeNGOnuSnPcz4MfHT/O9Z3hp/LTEPGfC2KGn/vp5EVa+gh+OpXkIQ4eOGf4o3T8lMC4BJgJYJAyBH97hJt2bVOCn/aD8JvL1del0XcPP+0PA7TruOgEkeb2Qbi0s3T2YMrv5qwFgwKsaKKzQ7tPh5H8M+AdL6nljf+06QwchAtGsV+f89g64mffKA6bh79w2INID+f4/9b4b3aGiYtz+wl+0outYiCDtLE9IDppDJCHo/NL/oML731gIDqOyAf7LnUSkIAEgsBBNEHM8DPB1f531RF+fNJetQV/iNah7VJsX2IgnDaPicJoS2knYwChLfhp91kFQHtJG8msMo4BYewGgj1eONdX8Ef++ByypD/a8bbNZ7UBeSI9q1ywY0C46UKss6SeiVPCar5klvcYcA5NgK3jOzPz4bBf2EXON7VNW/DjH7sKQ/yihVjNwWAzZcCqBRxb0hgUwg8HdjzsEp9sU8Ymc7RZLEIY5W8Zgp+32MeDgeCPAqAQOIDeR/BTBFQoxDVvhg/H8hIqESM8dFLaLipbswLihxEiKknXiFoIfkbWeFhZ0s+DxSdu2Uv7FlcXe2zIJx0iHqKYSeHlFOFY/oIfHrZwdNA4RycyBjhYGkrF5zxHNCxxT/tzleCHUwxc8OCE42GjHOBBHE3BH374pBPX5tV8Sz+rLhjEaB886DiX9C84+FcCYxCIdo3Z2hD8CMVoi/nk+e8S/LwQh5cKDTmabQz5ZQR+v05aXy59BH+sqmKv+joOAU96yQcDt6Sf5Y+0xwhyZh+4TueNjgQrt8IxmMxMUsxu0PZiv7AHDHrTEWQbGR0+zsVgdAhl2mDi4KDNpVxiaxUinPaasmD7Bf/mlesx0Et6KEvac1YTYMOifQ9bTDrDLmFrsMEs52dmn/QwG8TgdKz6iL2e3EeHivAIl1k13hPDbwbvYc67BkgPyzTDjgUXPyUgge0mcBBNEIK/D8Euwc99tJnt2eD9wmOQFaEbs9mx7TZeMBerdduCvxlu7OGPc0zG0W4yeIDbtOBH8xAf/XOW4aOJ+KQPwHnabGzLMheCH3/YChjG2+7Z1oDjHGEhyvHP1mE0G/eEDoj3k/GfbLChXA8/XYKflWYxURwaBPtJ+mNgujlTz8A4moay4cXu2EEGBRD32DcmJbmP9E3IzV/wM3IF7HPes8DKMo7mC93iO+I3ZikQ7uHouFBR6IDS8aGg6Eh1Pax0LtqCP0aTGNGhsHkYme3BL52V6OAikpsuOsZUQioOlZeHIpbtNAU/Dwz+mo49+qSbUUTyBgNEfHTqwi+z6vijAWI1AeGQJvLKrE5sF+ABYtaFThf+4YBwb75BP8JcJfhjRoa0NBmSx5jFZ7SODmTbUZZ0FlcJ/vY97d88tM1Bj/Z1f0tAApsjQNtKWxRGNdrf9idCj3YEv+HYekU7NOSgrT6owyi308dvtiWQlq5r8R9QaK/JQ1c7uV+6WJ3F4Gr8e6AQ+dgNvmNb6ETQHrMqinSEC7vDlqwQ/Mzw4Jjdj1l02l1mJchHrASjQ0OcsCNsDvKAzQnHIEOki+ukAxsVgh9/DC7Q8aGtxy8zYvhpzng1BX+EzSeiHTtJ+khbrNBq+oFPOPzDJdLLJy+JpRxiRVv49VMCEtheAgfVBLRf9MWxR/sd9Keb7d261NEOtGnYItpxvuMYAKC/zhEDm0MEP2Gwqpb+Pi7E7OLX7t/mkn4GfRG7cfA+M9r9+M1nhLcbwu437BQ6qdlW0y9nAAONwXn0S5eL1cKxWjnCaG/T4wV62I64HuGGDaQOoAkZZKYMGfimb4L/5opn7CwDAm3HCmrsC/4Jg7Q3Hdom+jjExXZsbGikB5vGYAADIFFuzftH+j5/wU/lAzIzAsscDxOjZ1EJGc0J1xT8zHggdNsdCCoKQpR46Ng0HZWhWcjEQQPAg0UHi04tDy1+YjkI94fg5xPHjBh+EOW4EPx0cqg8pKvpmFGikuMQ/cTbnP0Jv7zXgMaLCk9DwUNC5aURiHQzGhrp4D5mVOi4cZ2425Wdih7bHfDPKBh+6QAuczwQkbe2Hx4s0h8PMG8ObbrmDH/zfPM7qxgYVSQdLI3SSUAC+QkwE9s1mNdMSbwQlWeVdnlsF7PXpKfvEemmw8f++3UcA5O0r+z/Z18jA7fMxpMGGIXDftHh4XwIYz6bNoE2nut8cpAufsfSSGbTWSHQdryPgPe2LOuU0LFrbiOI+7mH1XQMLISLjjZbw8K1BT/x0MkibczyY1ubwj7uo8PFIAd2N/JGfmHGKi8GhSOPhMV3Brd1EpDAdhM4qCag/45AZUByvwN/KQQ/7TmrexGsiHvaMxztJUKy+R6WoYKfcOhjMzBLWxn/iWURw+JvU/DHpB1+lx3LBHuESbrp72PTmhN/cb3PJ8KcrXnLdAVxMEASwjvC5De2rjkjzzVsKLak6dqCH/5hb5j8bIcR9zLQTXlhw7DhlBHaEE3GO2WoE012+IvVcxHGCJ/zF/xAay/rbIOM2STEN0KZjkk4KgcdBUZiqDzNDkz4QdByL0s32qIa/3Sa2pUu7uWTistoT9tRYcPxvfk/HukEsYSHmRwq4aoRtVgWGmG1P2kAI30RDr8R1u38NO9lEGC/5f34J0xWNEQczTD6fKdDC1sOBgaa5cP9NHCxVGdZeJQdjWb7pU/L/HteAhJIT4C2qP1yuXYsPOO0p6z4aQ8mtv1O/Tdt17IOyX5p5z4GZMMxiEqHARHcNYDNrHuzjW3ei43DtjFwHAdt4qYcA+V0StlCRXkzYBH7LGmvw9Hp498LNh2DDww4r3Lkh9UTdLj5N0vE1+VgQn1i2x2fOglIQAIH0QSIPFbE9nGIuGWisM/9TT+07dgTxGSzfWQVV7Pdpz/fJdoJi7afbVhtx3lsLu8H6FqNRj4YSMVxnfZ31dGcJW/HNYXfiHtENjzRZzG7z5aHpmvbDewJq55X6SLuR5MxyQhP7uly8GPyFO3CioRmGXb5z3CuDMGfAZRRSEACEpCABCTwjwRiFVpzJmPV/kzBSUACEpCABDZNgK3dsR0u7BOD0+sOzm86vZnCV/BnAm00EpCABCQggeII0LnimPqsT3HgzZAEJCABCSwlwPtsWOm2bIXY0hvLvKDgL7NczZUEJCABCUhAAhKQgAQkIAEJbDkBBf+WVwCzLwEJSEACEpCABCQgAQlIQAJlElDwl1mu5koCEpCABCQgAQlIQAISkIAEtpyAgn/LK4DZl4AEJCABCUhAAhKQgAQkIIEyCSj4yyxXcyUBCUhAAhKQgAQkIAEJSEACW05Awb/lFcDsS0ACEpCABCQgAQlIQAISkECZBBT8ZZaruZKABCQgAQlIQAISkIAEJCCBLSeg4N/yCmD2JSABCUhAAhKQgAQkIAEJSKBMAgr+MsvVXElAAhKQgAQkIAEJSEACEpDAlhNQ8G95BTD7EpCABCQgAQlIQAISkIAEJFAmAQV/meVqriQgAQlIQAISkIAEJCABCUhgywko+Le8Aph9CUhAAhKQgAQkIAEJSEACEiiTgIK/zHI1VxKQgAQkIAEJSEACEpCABCSw5QQU/FteAcy+BCQgAQlIQAISkIAEJCABCZRJQMFfZrmaKwlIQAISkIAEJCABCUhAAhLYcgIK/i2vAGZfAhKQgAQkIAEJSEACEpCABMokoOAvs1zNlQQkIAEJSEACEpCABCQgAQlsOQEF/5ZXALMvAQlIQAISkIAEJCABCUhAAmUSUPCXWa7mSgISkIAEJCABCUhAAhKQgAS2nICCf8srgNmXgAQkIAEJSEACEpCABCQggTIJKPjLLFdzJQEJSEACEpCABCQgAQlIQAJbTkDBv+UVwOxLQAISkIAEJCABCUhAAhKQQJkEFPxllqu5koAEJCABCUhAAhKQgAQkIIEtJ/D/AcMRJH9vEhy7AAAAAElFTkSuQmCC;" parent="1" vertex="1">
          <mxGeometry x="100" y="20" width="1020" height="623" as="geometry" />
        </mxCell>
      </root>
    </mxGraphModel>
  </diagram>
</mxfile>
